<svg width="68" height="68" viewBox="0 0 68 68" fill="none" xmlns="http://www.w3.org/2000/svg">
<g clip-path="url(#clip0_6325_6453)">
<path d="M16.4898 13.7157C15.5942 13.716 14.7776 14.213 14.3612 15.0029L14.3605 15.0043C13.8716 15.935 12.8339 16.5917 11.6357 16.5935H11V15.7813L11.6344 15.7813L11.6363 15.7812C12.4723 15.7797 13.2803 15.3115 13.6418 14.6258L13.6419 14.6255C14.2022 13.5621 15.2929 12.9038 16.4923 12.9036C17.6943 12.9052 18.7841 13.5637 19.3424 14.6249C19.699 15.3086 20.4292 15.5519 20.8889 15.6368L21.6389 15.7752L21.9707 15.0885C22.5397 13.9113 24.1435 12.9039 26.3361 12.9045L26.3371 12.9045C27.5681 12.9037 28.705 13.2364 29.5445 13.7961L29.5467 13.7975C30.5006 14.4298 30.9614 15.2958 30.9608 16.1221V16.1237C30.9614 16.9473 30.5041 17.8096 29.5455 18.4487C28.706 19.0084 27.5689 19.3412 26.3363 19.3412C24.6886 19.3412 23.3342 18.7681 22.5357 17.9696C22.2618 17.6957 22.056 17.3954 21.9177 17.0814L21.6762 16.5333L21.0789 16.4875C19.9574 16.4017 19.0584 15.8368 18.6248 15.007L18.6248 15.007L18.6219 15.0016C18.2069 14.2192 17.3985 13.7144 16.4898 13.7157ZM16.4898 13.7157C16.4895 13.7157 16.4892 13.7157 16.4889 13.7157L16.4907 14.7157V13.7157C16.4904 13.7157 16.4901 13.7157 16.4898 13.7157ZM30.1002 19.2808C31.2829 18.4923 31.9617 17.3416 31.9608 16.1229C31.9617 14.9023 31.28 13.7467 30.0993 12.964C29.0738 12.2804 27.7376 11.9036 26.3364 11.9045L30.1002 19.2808Z" fill="#E7D1C4" stroke="#BF7E68" stroke-width="2"/>
<path d="M50.7096 53.5897L50.7075 53.5886C49.9183 53.171 49.4196 52.3557 49.4196 51.4598C49.4196 50.5614 49.9154 49.7435 50.7091 49.3263M50.7096 53.5897L49.9809 45.4139C49.1821 44.615 48.6085 43.2613 48.6085 41.6143C48.6085 40.3817 48.9412 39.2446 49.5009 38.4051M50.7096 53.5897C51.6815 54.1009 52.4027 55.1628 52.4053 56.3122L52.399 57H51.4146M50.7096 53.5897L51.4146 57M50.7091 49.3263C50.7096 49.3261 50.71 49.3258 50.7104 49.3256L51.1752 50.211L50.7089 49.3264C50.709 49.3264 50.7091 49.3263 50.7091 49.3263ZM50.7091 49.3263C51.5401 48.8882 52.1157 47.9746 52.1956 46.8421L52.2378 46.2442L52.785 45.9996C53.2985 45.7699 53.7767 45.3876 54.1536 44.8224L54.9844 45.3763L54.1536 44.8223C54.7133 43.9828 55.0459 42.8459 55.0451 41.6149V41.6143C55.0451 38.7307 53.3925 36.992 51.8269 36.9889C51.0018 36.9892 50.1397 37.447 49.5009 38.4051M49.5009 38.4051L48.6705 37.8515L49.5009 38.4051ZM51.4146 57L51.4208 56.3255L51.4209 56.3255L51.4209 56.3144C51.4195 55.5992 51.1072 54.7096 50.3282 54.3073C49.2693 53.743 48.6101 52.6558 48.6074 51.4593C48.6087 50.2551 49.2687 49.1653 50.3305 48.607L51.4146 57ZM51.4797 46.3109L51.3416 47.06C51.2562 47.5228 51.0123 48.249 50.3313 48.6065L51.4797 46.3109ZM51.4797 46.3109L50.7943 45.9787M51.4797 46.3109L50.7943 45.9787M50.7943 45.9787C50.4852 45.829 50.2124 45.6453 49.981 45.4139L50.7943 45.9787Z" fill="#E7D1C4" stroke="#BF7E68" stroke-width="2"/>
<path d="M43.0753 28.3273L43.7824 27.6202L43.0753 26.9131L41.0864 24.9243L40.3793 24.2172L39.6722 24.9243L35.5888 29.0077C32.6395 24.4856 33.1525 18.3627 37.109 14.4061C41.6505 9.86463 49.052 9.86455 53.5934 14.4061C58.1349 18.9477 58.1349 26.3491 53.5935 30.8906L54.3006 31.5977L53.5934 30.8906C49.6369 34.8472 43.5139 35.3601 38.9918 32.4108L43.0753 28.3273ZM51.0302 16.9694L51.0302 16.9694C48.9947 14.934 45.6853 14.934 43.6498 16.9694C41.6142 19.0049 41.6142 22.3143 43.6498 24.3499L43.6498 24.3499C45.6853 26.3853 48.9948 26.3854 51.0302 24.3499L51.0302 24.3499C53.0657 22.3143 53.0657 19.0049 51.0302 16.9694Z" fill="#E7D1C4" stroke="#BF7E68" stroke-width="2"/>
<path d="M47.3398 22.0658C48.1165 22.0658 48.7461 21.4362 48.7461 20.6596C48.7461 19.8829 48.1165 19.2533 47.3398 19.2533C46.5632 19.2533 45.9336 19.8829 45.9336 20.6596C45.9336 21.4362 46.5632 22.0658 47.3398 22.0658Z" fill="#BF7E68"/>
<path d="M35.4124 32.013C35.5051 32.1117 35.5995 32.209 35.6952 32.3047C35.7909 32.4004 35.8883 32.4948 35.9869 32.5876L32.5288 36.0457L32.0303 36.5442L32.3324 37.1813C32.9036 38.3856 32.6983 39.8536 31.7176 40.8343L22.7683 49.7836L22.0612 50.4907L22.7683 51.1978L24.0499 52.4794L23.4754 53.0539L20.2051 49.7836L19.498 49.0765L18.7909 49.7836L15.2822 53.2923L14.5751 53.9994L15.2822 54.7065L16.5679 55.9922L15.9852 56.5817L11.4183 52.0148L12.0078 51.432L13.2936 52.7176L14.0007 53.4247L14.7078 52.7176L18.2165 49.2089L18.9236 48.5018L18.2165 47.7947L14.9462 44.5244L15.5207 43.9499L16.8023 45.2315L17.5094 45.9386L18.2165 45.2315L27.1658 36.2822C28.1465 35.3015 29.6144 35.0962 30.8188 35.6674L31.4559 35.9695L31.9544 35.471L35.4124 32.013Z" fill="#E7D1C4" stroke="#BF7E68" stroke-width="2"/>
</g>
<defs>
<clipPath id="clip0_6325_6453">
<rect width="48" height="48" fill="white" transform="translate(10 10)"/>
</clipPath>
</defs>
</svg>
