<svg width="66" height="69" viewBox="0 0 66 69" fill="none" xmlns="http://www.w3.org/2000/svg">
<path d="M33.9752 51.0724C43.127 51.0724 50.5461 43.6533 50.5461 34.5015C50.5461 25.3497 43.127 17.9306 33.9752 17.9306C24.8233 17.9306 17.4043 25.3497 17.4043 34.5015C17.4043 43.6533 24.8233 51.0724 33.9752 51.0724Z" fill="#60B8FE"/>
<path d="M21.5898 34.5015C21.5898 26.0586 27.904 19.0905 36.068 18.0617C35.3825 17.9754 34.6841 17.9306 33.9752 17.9306C24.8233 17.9306 17.4043 25.3497 17.4043 34.5015C17.4043 43.6534 24.8234 51.0724 33.9752 51.0724C34.684 51.0724 35.3825 51.0277 36.068 50.9413C27.904 49.9125 21.5898 42.9444 21.5898 34.5015Z" fill="#23A8FE"/>
<path d="M33.9739 47.1043C40.9342 47.1043 46.5767 41.4618 46.5767 34.5015C46.5767 27.5412 40.9342 21.8987 33.9739 21.8987C27.0136 21.8987 21.3711 27.5412 21.3711 34.5015C21.3711 41.4618 27.0136 47.1043 33.9739 47.1043Z" fill="#DFEBFA"/>
<path d="M25.5567 34.5015C25.5567 28.2543 30.1026 23.0696 36.0667 22.0727C35.3859 21.9589 34.687 21.8987 33.9739 21.8987C27.0136 21.8987 21.3711 27.5411 21.3711 34.5015C21.3711 41.4619 27.0135 47.1043 33.9739 47.1043C34.687 47.1043 35.3859 47.0441 36.0667 46.9303C30.1026 45.9334 25.5567 40.7487 25.5567 34.5015Z" fill="#B1DBFC"/>
<path d="M33.9744 23.9392C33.5744 23.9392 33.25 23.6149 33.25 23.2148V21.8987C33.25 21.4986 33.5744 21.1743 33.9744 21.1743C34.3745 21.1743 34.6988 21.4986 34.6988 21.8987V23.2148C34.6988 23.6149 34.3745 23.9392 33.9744 23.9392Z" fill="#8BCAFF"/>
<path d="M33.9744 47.8286C33.5744 47.8286 33.25 47.5043 33.25 47.1042V45.7882C33.25 45.388 33.5744 45.0638 33.9744 45.0638C34.3745 45.0638 34.6988 45.388 34.6988 45.7882V47.1042C34.6988 47.5043 34.3745 47.8286 33.9744 47.8286Z" fill="#8BCAFF"/>
<path d="M27.7044 25.0891L27.0464 23.9494C26.8464 23.6029 26.965 23.1599 27.3115 22.9598C27.658 22.76 28.1011 22.8785 28.3011 23.225L28.9591 24.3647C29.1592 24.7112 29.0405 25.1542 28.694 25.3542C28.3474 25.5543 27.9044 25.4355 27.7044 25.0891Z" fill="#8BCAFF"/>
<path d="M39.6478 45.778L38.9898 44.6383C38.7897 44.2918 38.9084 43.8488 39.2549 43.6488C39.6012 43.4489 40.0444 43.5674 40.2444 43.9139L40.9025 45.0536C41.1025 45.4001 40.9838 45.8431 40.6373 46.0432C40.2913 46.2429 39.8481 46.1248 39.6478 45.778Z" fill="#8BCAFF"/>
<path d="M23.838 29.4855L22.6983 28.8275C22.3518 28.6274 22.2331 28.1844 22.4331 27.838C22.6332 27.4914 23.0762 27.3728 23.4228 27.5728L24.5625 28.2309C24.909 28.4309 25.0277 28.874 24.8276 29.2204C24.6276 29.5667 24.1847 29.6856 23.838 29.4855Z" fill="#8BCAFF"/>
<path d="M44.5274 41.4302L43.3877 40.7722C43.0412 40.5721 42.9225 40.129 43.1226 39.7826C43.3226 39.436 43.7656 39.3174 44.1121 39.5175L45.2518 40.1755C45.5983 40.3756 45.717 40.8187 45.517 41.1651C45.317 41.5116 44.874 41.6303 44.5274 41.4302Z" fill="#8BCAFF"/>
<path d="M22.687 35.2259H21.3709C20.9708 35.2259 20.6465 34.9016 20.6465 34.5015C20.6465 34.1014 20.9709 33.7771 21.3709 33.7771H22.687C23.0871 33.7771 23.4114 34.1014 23.4114 34.5015C23.4114 34.9016 23.087 35.2259 22.687 35.2259Z" fill="#8BCAFF"/>
<path d="M46.5776 35.2259H45.2615C44.8614 35.2259 44.5371 34.9016 44.5371 34.5015C44.5371 34.1014 44.8615 33.7771 45.2615 33.7771H46.5776C46.9776 33.7771 47.302 34.1014 47.302 34.5015C47.302 34.9016 46.9777 35.2259 46.5776 35.2259Z" fill="#8BCAFF"/>
<path d="M22.4331 41.1651C22.2331 40.8186 22.3518 40.3756 22.6982 40.1755L23.8379 39.5175C24.1845 39.3175 24.6275 39.4361 24.8275 39.7826C25.0275 40.1291 24.9088 40.5721 24.5624 40.7722L23.4227 41.4302C23.0762 41.6302 22.6331 41.5116 22.4331 41.1651Z" fill="#8BCAFF"/>
<path d="M43.1226 29.2204C42.9225 28.8739 43.0413 28.4309 43.3877 28.2309L44.5274 27.5728C44.8739 27.3729 45.3169 27.4915 45.5169 27.838C45.717 28.1845 45.5982 28.6274 45.2518 28.8275L44.1121 29.4855C43.7655 29.6855 43.3225 29.5668 43.1226 29.2204Z" fill="#8BCAFF"/>
<path d="M27.3115 46.0432C26.965 45.8431 26.8464 45.4 27.0464 45.0536L27.7044 43.9139C27.9045 43.5672 28.3476 43.4488 28.694 43.6488C29.0405 43.8489 29.1592 44.2919 28.9591 44.6383L28.3011 45.778C28.1011 46.1245 27.6581 46.2432 27.3115 46.0432Z" fill="#8BCAFF"/>
<path d="M39.2549 25.3542C38.9084 25.1542 38.7897 24.7111 38.9898 24.3647L39.6478 23.225C39.8479 22.8784 40.2908 22.7599 40.6373 22.9598C40.9838 23.1599 41.1025 23.603 40.9025 23.9494L40.2444 25.0891C40.0445 25.4356 39.6014 25.5543 39.2549 25.3542Z" fill="#8BCAFF"/>
<path d="M33.9737 47.8286C26.6251 47.8286 20.6465 41.8501 20.6465 34.5015C20.6465 27.1529 26.6251 21.1744 33.9737 21.1744C41.3224 21.1744 47.3009 27.1529 47.3009 34.5015C47.3009 41.8501 41.3224 47.8286 33.9737 47.8286ZM33.9737 22.6232C27.424 22.6232 22.0954 27.9518 22.0954 34.5015C22.0954 41.0513 27.424 46.3798 33.9737 46.3798C40.5235 46.3798 45.8521 41.0513 45.8521 34.5015C45.8521 27.9518 40.5235 22.6232 33.9737 22.6232Z" fill="#0193FA"/>
<path d="M33.1475 37.6907H29.1155C29.1155 37.5151 29.0883 37.2932 29.4073 36.9674C29.6377 36.7319 29.9301 36.4847 30.2764 36.2325C31.4762 35.3583 33.9915 34.0303 33.9915 31.5668C33.9915 29.4686 32.1955 28.2001 30.3019 28.2001C28.3714 28.2001 26.7507 29.4461 26.7507 31.2745C26.7507 31.7736 26.8609 32.1129 27.0874 32.3116C27.3016 32.4999 27.5757 32.5954 27.9023 32.5954C28.7669 32.5954 29.1925 32.0647 29.1925 31.613C29.1925 31.2061 29.2929 30.9292 29.4993 30.7664C29.7239 30.5894 29.9915 30.5034 30.3173 30.5034C31.0839 30.5034 31.5037 31.0114 31.5037 31.6283C31.5037 31.935 31.3993 32.2213 31.1845 32.5031C30.0619 33.9769 28.1163 34.6233 26.9637 36.2802C26.6897 36.674 26.5508 37.1065 26.5508 37.5656V39.0577C26.5508 39.6446 27.2417 39.9325 27.6717 39.9325H33.1476C33.6885 39.9325 34.0224 39.3428 34.0224 38.7962C34.0222 38.2506 33.6849 37.6907 33.1475 37.6907Z" fill="#43CB8E"/>
<path d="M27.9017 32.5954C28.2178 32.5954 28.4744 32.524 28.6738 32.412C28.6265 32.3819 28.5808 32.3491 28.5382 32.3116C28.3117 32.1129 28.2014 31.7736 28.2014 31.2745C28.2014 29.6831 29.4294 28.5334 31.0204 28.2619C30.7846 28.2212 30.5438 28.2001 30.3013 28.2001C28.3708 28.2001 26.75 29.4461 26.75 31.2745C26.75 31.7736 26.8602 32.1129 27.0867 32.3116C27.301 32.4999 27.5752 32.5954 27.9017 32.5954Z" fill="#00BA66"/>
<path d="M28.002 39.0577V37.5656C28.002 37.1065 28.141 36.6741 28.4149 36.2802C29.5676 34.6233 31.5132 33.9769 32.6357 32.5031C32.8505 32.2212 32.9549 31.935 32.9549 31.6283C32.9549 31.0114 32.5351 30.5034 31.7686 30.5034C31.4843 30.5034 31.2443 30.569 31.0386 30.7032C31.3426 30.907 31.5037 31.2466 31.5037 31.6283C31.5037 31.935 31.3992 32.2213 31.1845 32.5031C30.0619 33.9769 28.1163 34.6233 26.9637 36.2802C26.6897 36.674 26.5508 37.1065 26.5508 37.5656V39.0577C26.5508 39.6446 27.2417 39.9325 27.6717 39.9325H29.123C28.6931 39.9325 28.002 39.6447 28.002 39.0577Z" fill="#00BA66"/>
<path d="M40.8996 35.1373H40.4208V33.7664C40.4208 33.1184 39.7729 32.8915 39.1768 32.8915C38.5612 32.8915 37.9328 33.1357 37.9328 33.7664V35.1373H36.7724L39.5491 29.584C39.7828 29.1166 39.5754 28.7108 39.1712 28.447C38.5108 28.0189 37.6797 28.1486 37.3441 28.8565L33.7012 36.0195C33.3483 36.6748 33.69 37.4869 34.4854 37.4869H37.9328V39.0577C37.9328 39.7064 38.6727 39.9326 39.1768 39.9326C39.7157 39.9326 40.4208 39.6973 40.4208 39.0577V37.4869H40.8996C41.4272 37.4869 41.7743 36.8545 41.7743 36.3198C41.7742 35.8131 41.533 35.1373 40.8996 35.1373Z" fill="#43CB8E"/>
<path d="M35.1526 36.0195L38.7954 28.8566C38.881 28.676 38.9992 28.5335 39.1383 28.4278C38.4834 28.0246 37.6742 28.1603 37.3441 28.8566L33.7012 36.0195C33.3483 36.6748 33.69 37.4869 34.4854 37.4869H35.9367C35.1413 37.4869 34.7996 36.6747 35.1526 36.0195Z" fill="#00BA66"/>
<path d="M39.3849 34.7361V33.7664C39.3849 33.3963 39.6021 33.1601 39.9053 33.0275C39.6882 32.9325 39.4285 32.8916 39.1776 32.8916C38.562 32.8916 37.9336 33.1358 37.9336 33.7664V35.1373H38.9837C39.2052 35.1373 39.3849 34.9577 39.3849 34.7361Z" fill="#00BA66"/>
<path d="M39.3849 39.0577V37.8881C39.3849 37.6665 39.2053 37.4869 38.9837 37.4869H37.9336V39.0578C37.9336 39.7064 38.6735 39.9325 39.1776 39.9325C39.4133 39.9325 39.681 39.8874 39.9075 39.7832C39.6158 39.6503 39.3849 39.42 39.3849 39.0577Z" fill="#00BA66"/>
<path d="M54.5506 43.9518C53.8642 43.5825 53.0086 43.8396 52.6393 44.5259C48.9381 51.4059 41.7912 55.6797 33.9874 55.6797C22.3776 55.6797 12.9212 46.2836 12.8229 34.6966C12.6849 18.4194 30.3944 7.9966 44.5466 16.1687C44.836 16.3358 44.9289 16.7104 44.7531 16.9946L43.6434 18.7886C43.3412 19.2771 43.74 19.8977 44.3097 19.826L50.8308 19.0061C51.2642 18.9516 51.5359 18.51 51.3891 18.0985L49.189 11.9331C48.9965 11.3936 48.2657 11.3162 47.9643 11.8032L46.8627 13.5843C46.6937 13.8576 46.3378 13.9463 46.0603 13.7842C30.2109 4.52513 10 15.9197 10 34.5144C10 40.9217 12.4952 46.9455 17.0258 51.4762C28.3481 62.7985 47.477 60.079 55.1248 45.863C55.494 45.1767 55.2369 44.3211 54.5506 43.9518Z" fill="#B58B5D"/>
<path d="M18.6668 51.4762C14.1362 46.9455 11.641 40.9217 11.641 34.5143C11.641 20.7523 22.7117 10.9349 34.8913 10.5146C22.0836 10.0635 10 20.1365 10 34.5143C10 40.9217 12.4952 46.9455 17.0258 51.4762C21.991 56.4413 28.4574 58.7056 34.7986 58.4847C28.9952 58.2937 23.2041 56.0135 18.6668 51.4762Z" fill="#B58B5D"/>
</svg>
