<svg width="62" height="62" viewBox="0 0 62 62" fill="none" xmlns="http://www.w3.org/2000/svg">
<rect x="2" y="2" width="58" height="58" rx="29" fill="#BB7B37" fill-opacity="0.5"/>
<rect x="2" y="2" width="58" height="58" rx="29" stroke="#BB7B37" stroke-width="4"/>
<path d="M34.2256 39.7267C33.3638 40.5884 32.2181 41.0631 30.9994 41.0631C29.7807 41.0631 28.635 40.5884 27.7732 39.7267C27.4071 39.3606 26.8135 39.3607 26.4474 39.7267C26.0813 40.0929 26.0813 40.6864 26.4475 41.0526C27.6633 42.2684 29.2799 42.9381 30.9994 42.9381C32.7189 42.9381 34.3355 42.2684 35.5514 41.0526C35.9175 40.6865 35.9175 40.0929 35.5514 39.7267C35.1853 39.3606 34.5917 39.3606 34.2256 39.7267Z" fill="white"/>
<path d="M33.0773 38.5769C33.4434 38.2109 33.4434 37.6172 33.0773 37.2511C32.7112 36.885 32.1176 36.885 31.7515 37.2511C31.5508 37.4518 31.2839 37.5624 31.0002 37.5624C30.7164 37.5624 30.4495 37.4518 30.2488 37.2512C29.8828 36.8851 29.2892 36.8851 28.923 37.2512C28.5569 37.6172 28.5569 38.2109 28.923 38.577C29.4779 39.1318 30.2155 39.4374 31.0002 39.4374C31.7848 39.4374 32.5224 39.1318 33.0773 38.5769Z" fill="white"/>
<path d="M41.9058 20.4196C38.9718 19.5445 35.0988 19.0625 31 19.0625C26.9012 19.0625 23.0282 19.5445 20.0942 20.4196C15.8838 21.6756 15 23.3317 15 24.5V28.5C15 29.8792 16.1517 31.0548 18.4231 31.9941C20.1878 32.7238 22.5482 33.2779 25.2795 33.6063C25.7174 34.6791 26.7715 35.4375 28 35.4375H34C35.2285 35.4375 36.2826 34.6791 36.7205 33.6063C39.4518 33.2779 41.8122 32.7238 43.5769 31.9941C45.8483 31.0548 47 29.8792 47 28.5V24.5C47 23.3317 46.1162 21.6756 41.9058 20.4196ZM16.875 28.5V27.2111C17.3249 27.4942 17.8543 27.7612 18.4645 28.0113C20.1794 28.714 22.4456 29.2515 25.0625 29.5799V31.6888C22.7083 31.3771 20.6328 30.8789 19.1396 30.2614C17.4681 29.5702 16.875 28.8806 16.875 28.5ZM36.3649 27.76C35.8295 27.0343 34.969 26.5625 34 26.5625H28C27.031 26.5625 26.1705 27.0343 25.6351 27.76C23.3606 27.4929 21.3163 27.0541 19.7587 26.4987C22.4709 25.5291 26.6091 24.9375 31 24.9375C35.3909 24.9375 39.5291 25.5291 42.2412 26.4987C40.6837 27.0541 38.6394 27.493 36.3649 27.76ZM35.0625 32.5C35.0625 33.0859 34.5859 33.5625 34 33.5625H28C27.4141 33.5625 26.9375 33.0859 26.9375 32.5V29.5C26.9375 28.9141 27.4141 28.4375 28 28.4375H34C34.5859 28.4375 35.0625 28.9141 35.0625 29.5V32.5ZM45.125 28.5C45.125 28.8806 44.5319 29.5702 42.8604 30.2614C41.3672 30.8789 39.2917 31.3771 36.9375 31.6888V29.5799C39.5545 29.2515 41.8207 28.714 43.5355 28.0113C44.1456 27.7612 44.6751 27.4943 45.125 27.2111V28.5ZM44.4443 25.4047C41.603 23.9519 36.5454 23.0625 31 23.0625C25.4546 23.0625 20.397 23.9519 17.5557 25.4047C17.0717 25.0403 16.875 24.7194 16.875 24.5C16.875 23.9396 18.0501 22.9859 20.6301 22.2164C23.395 21.3917 27.0778 20.9375 31 20.9375C34.9223 20.9375 38.605 21.3917 41.3699 22.2164C43.9499 22.9859 45.125 23.9396 45.125 24.5C45.125 24.7194 44.9283 25.0403 44.4443 25.4047Z" fill="white"/>
<path d="M33 30.0625H29C28.4822 30.0625 28.0625 30.4823 28.0625 31C28.0625 31.5178 28.4822 31.9375 29 31.9375H33C33.5177 31.9375 33.9375 31.5178 33.9375 31C33.9375 30.4823 33.5177 30.0625 33 30.0625Z" fill="white"/>
</svg>
