<svg width="68" height="68" viewBox="0 0 68 68" fill="none" xmlns="http://www.w3.org/2000/svg">
<path d="M18.1282 58H54.1171C56.2514 58 57.9817 56.2698 57.9817 54.1353V18.6544C57.9817 16.52 56.2514 14.7897 54.1171 14.7897H13.8646C11.7302 14.7897 10 16.5199 10 18.6544V49.2137L18.1282 58Z" fill="#FFECC2"/>
<path d="M54.1176 14.7897H50.2559C52.3902 14.7897 54.1205 16.5199 54.1205 18.6544V54.1353C54.1205 56.2698 52.3902 58 50.2559 58H54.1176C56.2519 58 57.9822 56.2698 57.9822 54.1353V18.6544C57.9822 16.52 56.2519 14.7897 54.1176 14.7897Z" fill="#FFE6AB"/>
<path d="M10 18.6544C10 16.5199 11.7302 14.7897 13.8646 14.7897H54.1171C56.2514 14.7897 57.9817 16.5199 57.9817 18.6544V24.7637H10V18.6544Z" fill="#B58B5D"/>
<path d="M54.1176 14.7897H50.2559C52.3902 14.7897 54.1205 16.5199 54.1205 18.6544V24.7637H57.9822V18.6544C57.9822 16.52 56.2519 14.7897 54.1176 14.7897Z" fill="#B58B5D"/>
<path d="M46.8227 19.6766H46.8298C47.941 19.6766 48.842 18.7861 48.842 17.6877V11.9888C48.842 10.8904 47.941 10 46.8298 10H46.8227C45.7115 10 44.8105 10.8904 44.8105 11.9889V17.6878C44.8105 18.7861 45.7114 19.6766 46.8227 19.6766Z" fill="#7D889E"/>
<path d="M21.1508 19.6766H21.158C22.2692 19.6766 23.1701 18.7861 23.1701 17.6877V11.9888C23.1701 10.8904 22.2693 10 21.158 10H21.1508C20.0396 10 19.1387 10.8904 19.1387 11.9889V17.6878C19.1388 18.7861 20.0396 19.6766 21.1508 19.6766Z" fill="#7D889E"/>
<path d="M18.1278 57.9817L10.0176 49.2137H14.7534C16.617 49.2137 18.1277 50.7244 18.1277 52.5881L18.1278 57.9817Z" fill="#B58B5D"/>
<path d="M43.5791 30.4579H39.6367C38.8364 30.4579 38.1875 31.1068 38.1875 31.9072C38.1875 32.7077 38.8364 33.3565 39.6367 33.3565H42.1299V50.1388C42.1299 50.9393 42.7788 51.5881 43.5791 51.5881C44.3795 51.5881 45.0283 50.9393 45.0283 50.1388V31.9071C45.0283 31.1068 44.3795 30.4579 43.5791 30.4579Z" fill="#B58B5D"/>
<path d="M35.2557 36.5348C35.2557 33.1634 32.4883 30.4205 29.0868 30.4205C26.1471 30.4205 23.6016 32.4929 23.0343 35.3481C22.8783 36.1332 23.3882 36.896 24.1733 37.052C24.958 37.2078 25.7212 36.698 25.8772 35.913C26.1759 34.4099 27.5257 33.319 29.0868 33.319C30.8902 33.319 32.3573 34.7616 32.3573 36.5348C32.3573 38.308 30.8903 39.7507 29.0868 39.7507C28.2865 39.7507 27.6376 40.3995 27.6376 41.2C27.6376 42.0004 28.2865 42.6493 29.0868 42.6493C30.8902 42.6493 32.3573 44.0919 32.3573 45.8651C32.3573 47.6383 30.8903 49.0809 29.0868 49.0809C27.463 49.0809 26.0705 47.891 25.8476 46.3133C25.8269 46.1661 25.8164 46.0153 25.8164 45.8651C25.8164 45.0647 25.1675 44.4158 24.3672 44.4158C23.5668 44.4158 22.918 45.0647 22.918 45.8651C22.918 46.1503 22.938 46.4373 22.9777 46.7184C23.4012 49.7177 26.0276 51.9794 29.0868 51.9794C32.4883 51.9794 35.2557 49.2366 35.2557 45.8651C35.2557 43.9967 34.405 42.3225 33.0683 41.2C34.4049 40.0775 35.2557 38.4032 35.2557 36.5348Z" fill="#B58B5D"/>
</svg>
