<svg width="62" height="62" viewBox="0 0 62 62" fill="none" xmlns="http://www.w3.org/2000/svg">
<g clip-path="url(#clip0_4045_5902)">
<path d="M60 31C60 47.0165 47.0165 60 31 60C14.9835 60 2 47.0165 2 31C2 14.9835 14.9835 2 31 2C47.0165 2 60 14.9835 60 31Z" fill="#BB7B37" fill-opacity="0.5" stroke="#BB7B37" stroke-width="4"/>
<path d="M38.6173 25.0367L38.0883 25.568C37.4564 26.2024 36.4327 26.2021 35.8011 25.5674L35.2715 25.0352L35.8005 24.5039C36.4324 23.8695 37.4561 23.8699 38.0876 24.5045L38.6173 25.0367Z" fill="#E9EDF5"/>
<path d="M37.1641 20.6855V21.7337C37.1641 22.3333 37.3265 22.9219 37.6338 23.4363L38.5179 24.9152L39.6978 24.2943L38.4777 23.212C38.0484 22.8307 37.7252 22.3436 37.5406 21.7986L37.1641 20.6855Z" fill="#E9EDF5"/>
<path d="M43.6533 25.0369L44.1823 25.5678C44.8142 26.2025 45.8382 26.2022 46.4695 25.5675L46.9991 25.0353L46.4701 24.504C45.8382 23.8697 44.8145 23.8697 44.1829 24.5046L43.6533 25.0369Z" fill="#E9EDF5"/>
<path d="M45.108 20.6855V21.7337C45.108 22.3333 44.9455 22.9219 44.6382 23.4363L43.7541 24.9152L42.5742 24.2943L43.7943 23.212C44.2236 22.8307 44.5468 22.3436 44.7314 21.7986L45.108 20.6855Z" fill="#E9EDF5"/>
<path d="M21.8721 35.4609H24.9046V44.0417H21.8721V35.4609Z" fill="#DCE1EB"/>
<path d="M37.7441 35.4609H40.7766V44.0417H37.7441V35.4609Z" fill="#BEC3D2"/>
<path d="M31.2925 24.0225C30.1416 22.8657 28.2687 22.8654 27.1175 24.0219L25.4248 22.3209C27.5093 20.2262 30.9009 20.2265 32.9855 22.3212L31.2925 24.0225Z" fill="#FFE67D"/>
<path d="M33.9319 21.3699C31.3249 18.7501 27.0832 18.7495 24.4759 21.3689L22.7832 19.668C26.3235 16.1103 32.0843 16.1109 35.6246 19.6686L33.9319 21.3699Z" fill="#FFE67D"/>
<path d="M32.9847 22.3211C31.9629 21.2942 30.6265 20.772 29.2842 20.752V23.1565C30.0133 23.1763 30.7365 23.4645 31.2917 24.0224L32.9847 22.3211Z" fill="#FFC200"/>
<path d="M35.6251 19.6687C33.8753 17.9101 31.5829 17.0213 29.2842 17.001V19.4068C30.9697 19.4269 32.649 20.0806 33.9324 21.37L35.6251 19.6687Z" fill="#FFC200"/>
<path d="M21.7559 35.8896V38.1464C21.7559 39.0495 22.2225 39.8424 22.9264 40.2969V41.1223C22.9264 41.3582 23.1169 41.5499 23.3519 41.5499C23.587 41.5499 23.7774 41.3582 23.7774 41.1223V40.6474C23.9454 40.6825 24.1197 40.7013 24.298 40.7013H24.4956V41.356C24.4956 41.5922 24.6861 41.7839 24.9212 41.7839C25.1562 41.7839 25.3467 41.5922 25.3467 41.356V40.7013H25.5443C25.7229 40.7013 25.8969 40.6825 26.0649 40.6474V41.1223C26.0649 41.3582 26.2557 41.5499 26.4907 41.5499C26.7258 41.5499 26.9162 41.3582 26.9162 41.1223V40.2969C27.6201 39.8424 28.0868 39.0492 28.0868 38.1464V35.8896H21.7559Z" fill="#FFB13B"/>
<path d="M40.7756 26.5273H21.2931C19.2716 26.5273 17.6328 28.1741 17.6328 30.2056V44.0423H20.6653V38.5891H33.5042V44.0423H36.5367V38.5891H38.5523C39.7802 38.5891 40.7756 37.5888 40.7756 36.3552V26.5273Z" fill="white"/>
<path d="M29.2842 26.5273V38.5891H33.5044V44.0423H36.5369V38.5891H38.5525C39.7804 38.5891 40.7758 37.5888 40.7758 36.3549V26.5273H29.2842Z" fill="#E9EDF5"/>
<path d="M43.0956 32.4128H39.1759C38.3851 32.4128 37.7441 31.7687 37.7441 30.974V25.3109C37.7441 24.5164 38.3854 23.8721 39.1759 23.8721H43.0956C43.8864 23.8721 44.5274 24.5164 44.5274 25.3109V30.974C44.5274 31.7687 43.8864 32.4128 43.0956 32.4128Z" fill="#BEC3D2"/>
<path d="M38.3872 26.5273H37.7441V30.9753C37.7441 31.7701 38.3851 32.4141 39.1759 32.4141H39.819V27.9661C39.819 27.1714 39.1781 26.5273 38.3872 26.5273Z" fill="#414952"/>
<path d="M43.8849 26.5273C43.094 26.5273 42.4531 27.1714 42.4531 27.9661V32.4141H43.0962C43.8871 32.4141 44.528 31.7701 44.528 30.9753V26.5273H43.8849Z" fill="#414952"/>
<path d="M23.937 27.87C23.937 28.1942 24.0078 28.5018 24.1334 28.7787H23.937C22.7322 28.7787 21.7559 29.7602 21.7559 30.9706C21.7559 32.1814 22.7325 33.1625 23.937 33.1625H27.0228C28.2274 33.1625 29.204 32.181 29.204 30.9706C29.204 30.6464 29.1332 30.3388 29.0076 30.0618H29.204C30.4088 30.0618 31.3852 29.0804 31.3852 27.87C31.3852 27.3637 31.2143 26.8982 30.9275 26.5273H24.3946C24.1082 26.8982 23.937 27.3637 23.937 27.87Z" fill="#636978"/>
<path d="M29.2842 30.0597C30.4519 30.0174 31.3855 29.0535 31.3855 27.8697C31.3855 27.3637 31.2147 26.8982 30.9279 26.5273H29.2842V30.0597Z" fill="#414952"/>
<path d="M16.9153 36.85H15V30.3057C15 28.5818 16.3953 27.1797 18.1107 27.1797H19.256V29.1044H18.1107C17.4514 29.1044 16.9153 29.6432 16.9153 30.3057V36.85Z" fill="white"/>
<path d="M43.2536 33.1078H39.0179C38.3143 33.1078 37.7441 32.5348 37.7441 31.8278V31.4694C37.7441 30.7624 38.3143 30.1895 39.0179 30.1895H43.2536C43.9572 30.1895 44.5274 30.7624 44.5274 31.4694V31.8278C44.5274 32.5348 43.9572 33.1078 43.2536 33.1078Z" fill="#23272B"/>
</g>
<defs>
<clipPath id="clip0_4045_5902">
<rect width="62" height="62" fill="white"/>
</clipPath>
</defs>
</svg>
