<svg width="33" height="20" viewBox="0 0 33 20" fill="none" xmlns="http://www.w3.org/2000/svg">
<path d="M30.5688 0C28.6981 0.141456 27.2366 0.539982 25.7147 1.53507C25.352 1.3845 24.8564 0.32875 24.6266 0.446947C23.8227 0.860434 23.6138 1.77684 24.2922 2.67876L20.2741 3.35312C18.5891 3.58034 16.9031 3.68215 15.2288 3.71588C15.319 3.97648 15.4301 4.23518 15.556 4.39936C15.911 4.86194 16.9382 4.82168 16.989 5.40247C17.1206 6.90531 15.2972 8.62706 13.7888 8.60271C12.7414 8.58585 12.6315 6.64667 11.6395 6.30997C10.3407 5.86914 8.80898 7.58647 7.57947 6.97862C6.54119 6.46536 5.87982 4.27191 5.6864 3.55035C4.99184 3.54171 4.30401 3.54069 3.62468 3.55273C2.77023 3.57762 2.06716 3.93663 1.62471 4.52109C1.03467 5.30032 0.83228 6.33404 0.723331 7.44032C0.602277 8.66834 1.14137 11.0452 1.09853 12.22C1.06425 13.162 0.588948 13.0273 0.288421 13.5046C-0.631044 14.9647 0.893282 14.9212 1.44551 13.8827C2.29438 12.2864 1.73474 9.59073 1.93482 7.55974C2.06098 5.12779 2.6555 5.93184 3.0001 5.88757C2.71446 6.77609 2.57777 7.99323 2.52404 9.37868C2.99295 9.21941 5.00619 8.58979 5.43001 9.36685C5.89736 10.2236 3.53926 10.8641 3.80612 11.8028C3.9737 12.3922 5.3669 11.9645 5.47789 12.5671C5.70381 13.7936 3.2928 15.1999 2.60551 15.5736C2.66074 17.1602 2.71188 18.6726 2.68971 20H4.72253C4.43458 18.8749 3.90385 16.6034 4.44642 16.2539C5.90348 15.0235 6.4755 13.7047 7.35253 12.4163C7.94793 12.5901 8.50322 12.7419 9.03789 12.8701C9.27953 12.9362 9.53054 12.9905 9.78489 13.036C11.4755 13.3738 13.971 13.4222 15.9588 13.0243C16.2146 15.3447 16.4528 17.6796 16.2718 20H18.2411C17.3995 18.1705 17.9512 15.5765 19.1859 14.133L22.2417 11.8573C23.9338 10.7431 25.1613 9.27327 26.049 7.54696C28.1165 7.77907 29.9312 7.77071 31.2986 7.49351L32.1718 6.16395C30.5222 4.94954 29.2271 3.67589 27.8909 2.21066C28.5752 1.2223 29.5929 0.662464 30.5687 0H30.5688ZM27.8909 3.71132C28.0352 3.71132 28.1736 3.76864 28.2757 3.87067C28.3777 3.9727 28.435 4.11109 28.435 4.25538C28.435 4.39968 28.3777 4.53806 28.2757 4.64009C28.1736 4.74213 28.0352 4.79945 27.8909 4.79945C27.7467 4.79945 27.6083 4.74213 27.5062 4.64009C27.4042 4.53806 27.3469 4.39968 27.3469 4.25538C27.3469 4.11109 27.4042 3.9727 27.5062 3.87067C27.6083 3.76864 27.7467 3.71132 27.8909 3.71132ZM23.5804 5.06814C23.9224 5.73612 21.8006 5.80317 21.8848 6.54881C21.9526 7.15047 23.3948 6.80989 23.485 7.40863C23.7446 9.13419 21.5509 11.0678 19.8071 11.1341C18.8372 11.1711 17.4335 10.1779 17.6099 9.22356C17.7871 8.26519 19.9597 9.11087 20.3563 8.22058C20.6776 7.49949 19.1082 6.72373 19.4727 6.02345C19.8987 5.20518 21.5377 4.48967 22.3246 4.48335C23.1114 4.47702 23.3859 4.7109 23.5804 5.06814ZM21.7724 13.6607L19.4121 15.2901L19.8517 20H22.1921C21.3908 18.473 21.1325 16.2252 21.7724 13.6607ZM7.86068 13.7565C7.44944 14.5852 6.89857 15.2507 6.35267 15.8812C6.75868 16.1012 7.14483 16.2494 7.51928 16.331C8.28219 16.4972 8.9907 16.3537 9.55598 16.0313C10.2399 15.6411 10.7475 15.0484 11.196 14.4421C10.2021 14.383 8.95445 14.2406 7.86068 13.7565ZM9.51 17.2929C8.91582 17.4688 8.32313 17.5446 7.77132 17.4943C8.12271 18.3528 8.482 19.1368 8.84747 20H10.7725C10.0657 18.7432 9.67431 18.0084 9.51 17.2929Z" fill="white"/>
</svg>
