<svg width="70" height="71" viewBox="0 0 70 71" fill="none" xmlns="http://www.w3.org/2000/svg">
<circle cx="35" cy="35.5" r="35" fill="#D77F4A" fill-opacity="0.25"/>
<g clip-path="url(#clip0_3939_2848)">
<path d="M30.7565 49.7977C31.6859 44.8051 28.049 39.9404 22.6331 38.9322C17.2172 37.9239 12.0733 41.1539 11.1439 46.1466C10.2144 51.1392 13.8514 56.0039 19.2672 57.0121C24.6831 58.0204 29.827 54.7904 30.7565 49.7977Z" fill="#D77F4A"/>
<path d="M22.6214 38.9148C21.447 38.6978 20.2858 38.6804 19.1777 38.8364C19.3394 38.8588 19.5014 38.8848 19.6637 38.9148C25.0816 39.9156 28.7265 44.7759 27.8048 49.7706C27.0829 53.6825 23.7736 56.5164 19.7697 57.0804C25.0057 57.8071 29.8684 54.6156 30.7626 49.7706C31.6842 44.7759 28.0393 39.9156 22.6214 38.9148Z" fill="#C86D36"/>
<path d="M17.3715 34.9356C17.1058 36.3756 15.7236 37.3273 14.2845 37.0615C12.8453 36.7956 11.894 35.4128 12.1598 33.973C12.3851 32.7517 15.0394 31.1077 15.8401 30.6367C15.964 30.5638 16.1225 30.6118 16.1859 30.7408C16.5464 31.4737 17.5923 33.7395 17.3715 34.9356Z" fill="#D77F4A"/>
<path d="M16.1868 30.7408C16.1234 30.6118 15.9649 30.5638 15.841 30.6366C15.4426 30.871 14.5853 31.3959 13.7966 32.0145C14.1802 32.9729 14.5556 34.1721 14.4147 34.9357C14.2799 35.6659 13.8579 36.2701 13.2871 36.6541C13.5797 36.8513 13.9164 36.9933 14.2855 37.0616C15.7247 37.3274 17.1067 36.3757 17.3725 34.9357C17.5932 33.7397 16.5473 31.4738 16.1868 30.7408Z" fill="#C86D36"/>
<path d="M27.6383 36.025C27.3726 37.465 28.3238 38.8477 29.763 39.1136C31.2021 39.3794 32.5842 38.4276 32.85 36.9877C33.0753 35.7664 31.1829 33.2826 30.603 32.5565C30.5134 32.4442 30.3482 32.4323 30.2429 32.5301C29.6446 33.0862 27.8589 34.8289 27.6383 36.025Z" fill="#D77F4A"/>
<path d="M30.6033 32.5565C30.5136 32.4442 30.3484 32.4323 30.2431 32.5301C29.9364 32.8151 29.3178 33.4122 28.7578 34.0875C29.4043 35.0751 30.0272 36.2572 29.8925 36.9877C29.7577 37.7179 29.3356 38.3221 28.7649 38.706C29.0575 38.9033 29.3941 39.0453 29.7633 39.1135C31.2025 39.3793 32.5845 38.4276 32.8503 36.9876C33.0756 35.7664 31.1831 33.2826 30.6033 32.5565Z" fill="#C86D36"/>
<path d="M25.8959 33.2587C25.602 34.8514 24.0733 35.9041 22.4814 35.61C20.8896 35.3159 19.8374 33.7865 20.1313 32.1938C20.383 30.8301 23.3722 28.9899 24.2267 28.489C24.35 28.4168 24.5081 28.4639 24.5714 28.5922C24.9573 29.3734 26.1428 31.9209 25.8959 33.2587Z" fill="#D77F4A"/>
<path d="M24.5712 28.5921C24.5079 28.464 24.3497 28.4167 24.2265 28.4891C23.8355 28.7183 22.9978 29.2282 22.1798 29.8441C22.628 30.9305 23.1029 32.3646 22.9379 33.2587C22.7768 34.1321 22.2438 34.8424 21.5332 35.2579C21.8186 35.425 22.1373 35.5465 22.4812 35.61C24.0731 35.9041 25.6018 34.8514 25.8957 33.2587C26.1425 31.9209 24.957 29.3734 24.5712 28.5921Z" fill="#C86D36"/>
<path d="M53.0264 40.3469C58.2441 38.5838 61.1564 33.2555 59.5312 28.4459C57.9059 23.6362 52.3586 21.1665 47.1409 22.9297C41.9232 24.6928 39.0109 30.0211 40.6361 34.8307C42.2613 39.6403 47.8086 42.11 53.0264 40.3469Z" fill="#D77F4A"/>
<path d="M59.5565 28.4749C58.1396 24.2504 53.699 21.8222 49.1036 22.4742C52.536 22.9682 55.4912 25.1728 56.5988 28.4749C58.2138 33.2901 55.2887 38.6152 50.0655 40.3688C49.4248 40.5839 48.7793 40.735 48.1367 40.8261C49.7093 41.0524 51.3821 40.9198 53.0233 40.3688C58.2464 38.6152 61.1715 33.2901 59.5565 28.4749Z" fill="#C86D36"/>
<path d="M51.8134 18.2533C52.279 19.6415 53.7811 20.3892 55.1686 19.9233C56.5561 19.4575 57.3034 17.9545 56.8378 16.5663C56.4429 15.3889 53.5839 14.135 52.7249 13.7814C52.592 13.7267 52.4418 13.7965 52.3972 13.9331C52.1434 14.7096 51.4267 17.1002 51.8134 18.2533Z" fill="#D77F4A"/>
<path d="M56.8383 16.5663C56.4435 15.3889 53.5844 14.135 52.7254 13.7814C52.5926 13.7267 52.4423 13.7965 52.3977 13.9331C52.3253 14.1549 52.215 14.5085 52.1035 14.927C52.9343 15.4192 53.6911 16.0015 53.8806 16.5663C54.2688 17.7236 53.8135 18.96 52.8477 19.6094C53.5073 20.0525 54.3577 20.1957 55.1692 19.9233C56.5566 19.4575 57.3039 17.9545 56.8383 16.5663Z" fill="#C86D36"/>
<path d="M41.8039 20.7774C42.2695 22.1655 41.5221 23.6685 40.1347 24.1344C38.7472 24.6001 37.2451 23.8525 36.7795 22.4643C36.3846 21.2869 37.9089 18.5614 38.3808 17.7608C38.4538 17.6371 38.6156 17.602 38.7336 17.6841C39.4042 18.1501 41.4172 19.6242 41.8039 20.7774Z" fill="#D77F4A"/>
<path d="M41.8027 20.7774C41.416 19.6242 39.403 18.1501 38.7324 17.6841C38.6144 17.602 38.4526 17.6371 38.3796 17.7608C38.2141 18.0415 37.9192 18.5593 37.623 19.1636C38.178 19.687 38.6727 20.2639 38.845 20.7774C39.2332 21.9346 38.7779 23.171 37.8121 23.8204C38.4716 24.2635 39.3221 24.4068 40.1335 24.1343C41.5209 23.6685 42.2683 22.1655 41.8027 20.7774Z" fill="#C86D36"/>
<path d="M43.1378 17.793C43.6528 19.3285 45.3144 20.1555 46.849 19.6403C48.3836 19.1251 49.2103 17.4627 48.6953 15.9272C48.2544 14.6125 45.0359 13.2115 44.1195 12.8359C43.9873 12.7817 43.8374 12.8507 43.7927 12.9865C43.5206 13.8143 42.7052 16.5034 43.1378 17.793Z" fill="#D77F4A"/>
<path d="M48.6948 15.9272C48.2539 14.6125 45.0354 13.2115 44.119 12.8359C43.9867 12.7817 43.8369 12.8507 43.7922 12.9865C43.7212 13.2025 43.6132 13.5458 43.5 13.9573C44.5208 14.5322 45.5069 15.2413 45.737 15.9272C46.1868 17.2682 45.613 18.7059 44.4383 19.3918C45.1429 19.8031 46.0142 19.9203 46.8485 19.6403C48.3832 19.125 49.2097 17.4627 48.6948 15.9272Z" fill="#C86D36"/>
</g>
<defs>
<clipPath id="clip0_3939_2848">
<rect width="49" height="49" fill="white" transform="translate(11 10.5)"/>
</clipPath>
</defs>
</svg>
