<svg width="70" height="71" viewBox="0 0 70 71" fill="none" xmlns="http://www.w3.org/2000/svg">
<circle cx="35" cy="35.5" r="35" fill="#444B54" fill-opacity="0.25"/>
<path d="M16.6973 42.3892V26.0795C16.6973 23.9438 18.3868 22.1963 20.4519 22.1963H41.1022C41.8155 22.1963 42.5289 22.4293 43.1672 22.8176L50.8641 28.0212L54.9566 29.1861H54.9942V29.225V38.8554C54.9942 40.3699 53.7927 41.6126 52.3284 41.6126C51.615 41.6126 50.9392 41.3407 50.4511 40.7971L45.833 36.0207L43.2047 39.9039L43.0546 39.8263L42.604 40.8359L28.7871 38.506L23.831 42.3892H16.6973Z" fill="white"/>
<path d="M17.1154 50.5004C16.4833 50.5004 16 50.017 16 49.385V41.5773C16 40.9452 16.4833 40.4619 17.1154 40.4619C17.7474 40.4619 18.2308 40.9452 18.2308 41.5773V49.385C18.2308 50.017 17.7474 50.5004 17.1154 50.5004Z" fill="#444B54"/>
<path d="M42.9565 39.346L31.4308 37.4871C30.836 37.3755 30.2411 37.7845 30.1667 38.4165C30.0552 39.0114 30.4642 39.6063 31.0962 39.6806L35.5578 40.3871L34.2565 46.5217C34.1449 47.1165 34.5167 47.7114 35.1116 47.8601C35.186 47.8601 35.2603 47.8973 35.3347 47.8973C35.8552 47.8973 36.3014 47.5255 36.4129 47.005L37.7142 40.7589L41.618 41.3909V49.3845C41.618 50.0165 42.1013 50.4999 42.7334 50.4999C43.3654 50.4999 43.8488 50.0165 43.8488 49.3845V40.4614C43.886 39.9037 43.477 39.4576 42.9565 39.346Z" fill="#444B54"/>
<path d="M28.0458 39.0489C27.674 38.5655 26.9676 38.454 26.4842 38.8258L23.9188 40.722L21.465 40.0899C20.8701 39.9412 20.2753 40.313 20.1265 40.9078C19.9778 41.5027 20.3496 42.0976 20.9445 42.2463L21.9855 42.5066C21.9855 42.5437 22.0227 42.6181 22.0227 42.6553L24.2535 48.604C24.4394 49.0501 24.8483 49.3104 25.2945 49.3104C25.4432 49.3104 25.5547 49.2732 25.7035 49.236C26.2983 49.013 26.5586 48.3809 26.3727 47.786L24.5509 42.9155C24.6624 42.8784 24.774 42.804 24.8855 42.7296L27.8599 40.4989C28.306 40.2386 28.4176 39.5322 28.0458 39.0489Z" fill="#444B54"/>
<path d="M59.0166 28.9731L51.3948 27.1513L43.9218 22.2808C43.141 21.7603 42.2487 21.5 41.282 21.5H20.8333C18.1564 21.5 16 23.6564 16 26.3333V37.1154C16 37.7474 16.4833 38.2307 17.1154 38.2307C17.7474 38.2307 18.2308 37.7474 18.2308 37.1154V26.3333C18.2308 25.1436 19.0487 24.1397 20.1269 23.8423L20.759 25.3295C21.5026 27.0769 23.1756 28.1179 24.9602 28.1179C25.4808 28.1179 26.0013 28.0436 26.5218 27.8577L28.9384 26.9654C29.2359 26.8538 29.5333 26.8167 29.8679 26.8167L31.6897 26.9282C33.7718 27.0397 35.6679 25.7013 36.3 23.7679H41.282C41.8025 23.7679 42.2859 23.9167 42.6948 24.1769L50.3166 29.159C50.4282 29.2333 50.5397 29.2705 50.6512 29.3077L53.923 30.0513V38.5654C53.923 39.3833 53.2538 40.0897 52.3987 40.0897C51.9897 40.0897 51.6179 39.941 51.3205 39.6436L46.8961 35.2192C46.45 34.7731 45.7435 34.7731 45.3346 35.2192C44.8884 35.6654 44.8884 36.3718 45.3346 36.7807L49.7589 41.2051C50.4653 41.9115 51.3948 42.3205 52.3987 42.3205C54.4807 42.3205 56.1538 40.6474 56.1538 38.5654V30.5718L58.4961 31.1295C59.091 31.2782 59.6858 30.9064 59.8345 30.3115C59.9833 29.7167 59.6115 29.1218 59.0166 28.9731Z" fill="#444B54"/>
<path d="M40.7227 32.3557L39.0125 31.0916C38.4176 30.6455 37.674 30.5339 37.0048 30.7198L35.1086 31.2775C34.1048 31.575 33.4355 32.4673 33.4355 33.5455C33.4355 34.5865 34.142 35.4788 35.183 35.739L38.7894 36.6685C38.9753 36.7057 39.1612 36.7429 39.3843 36.7429C39.9048 36.7429 40.3881 36.5942 40.7971 36.2596C41.3548 35.8134 41.6894 35.1442 41.6894 34.4378V34.2147C41.6522 33.4711 41.3176 32.7647 40.7227 32.3557Z" fill="#444B54"/>
</svg>
