<svg width="301" height="241" viewBox="0 0 301 241" fill="none" xmlns="http://www.w3.org/2000/svg">
<g clip-path="url(#clip0_3794_3623)">
<path d="M301 0H0V241H301V0Z" fill="white"/>
<g opacity="0.2">
<path d="M77.3086 68.8017C73.9793 67.2348 68.4734 69.7825 66.7179 73.5106C63.3667 80.6275 74.2054 90.9344 78.1471 89.8282C82.5517 88.592 83.4213 71.6785 77.3086 68.8017Z" stroke="#B58B5D" stroke-width="20" stroke-miterlimit="10" stroke-linecap="round" stroke-dasharray="50 50 50 50 50 50"/>
<path d="M60.6567 84.9213C59.4685 84.2334 46.8826 76.9469 39.76 82.7136C34.7588 86.7627 34.7109 95.4176 38.4692 100.282C45.9128 109.916 68.9948 105.597 71.3897 98.7031C73.0025 94.0607 65.4306 87.6851 60.6567 84.9213Z" stroke="#B58B5D" stroke-width="20" stroke-miterlimit="10" stroke-linecap="round" stroke-dasharray="50 50 50 50 50 50"/>
<path d="M76.8509 203.886C107.486 196.276 142.296 188.528 196.348 189.848C226.577 190.586 233.427 181.197 256.338 169.524C276.758 159.12 286.788 138.431 280.628 126.706C274.409 114.868 255.468 119.581 239.956 101.96C232.891 93.9352 234.134 88.3102 230.056 79.4107C217.14 51.2312 168.731 29.2056 144.86 40.8621C113.323 56.2614 140.284 122.8 105.032 140.976C82.733 152.474 65.8788 130.401 43.8613 147.251C32.9519 155.6 19.6092 167.311 18.5773 180.027C18.5773 180.027 17.1325 211.116 76.8509 203.886Z" stroke="#B58B5D" stroke-width="20" stroke-miterlimit="10" stroke-linecap="round" stroke-dasharray="50 50 50 50 50 50"/>
<path d="M246.108 169.26C246.108 169.26 240.558 176.624 235.008 186.728C230.004 195.839 226.199 208.115 225.359 218.365C223.002 218.253 220.413 218.149 217.614 218.049C201.039 217.46 177.109 217.092 150.502 217.092C120.252 217.092 93.4651 217.569 77.0095 218.303C76.443 218.328 75.8885 218.353 75.3467 218.379C54.8023 192.894 13.4323 148.494 51.5039 130.229C51.5039 130.229 54.293 129.379 58.4745 127.552C71.7089 121.771 98.9048 106.215 95.8798 76.8852C95.8798 76.8852 94.8491 71.4121 94.8491 63.7965C94.8491 45.989 100.482 16.4713 138.088 17.8185C160.861 18.6355 181.834 30.2336 194.514 48.7978C206.951 67.006 226.838 89.4087 243.033 76.6189C246.771 73.6654 251.714 72.5713 256.329 73.8697C267.986 77.1467 281.229 94.1113 246.108 169.26Z" fill="#DAC5AF"/>
</g>
<path opacity="0.15" d="M276.348 219.357C276.348 220.562 220.004 221.539 150.501 221.539C111.285 221.539 76.2582 221.228 53.178 220.74C47.8619 220.628 43.1804 220.506 39.2273 220.377C36.6235 220.292 34.3358 220.203 32.391 220.111C27.3872 219.876 24.6543 219.622 24.6543 219.357C24.6543 219.018 29.09 218.698 37.0068 218.413C40.249 218.295 44.0746 218.184 48.4186 218.08C71.2758 217.532 108.484 217.174 150.501 217.174C187.46 217.174 220.698 217.45 243.722 217.891C263.994 218.278 276.348 218.792 276.348 219.357Z" fill="#040C2B"/>
<path d="M190.98 59.1092L182.736 74.5709C182.424 75.1566 181.696 75.378 181.111 75.0655L167.45 67.7695C166.865 67.4569 166.644 66.7287 166.956 66.1431L176.718 47.8356C177.03 47.2499 177.757 47.0284 178.343 47.341L189.089 53.0806L189.123 53.1882L190.98 59.1092Z" fill="#F8F4EF"/>
<path opacity="0.1" d="M190.98 59.1091L187.939 57.4853C187.463 57.2308 187.283 56.6381 187.537 56.1613L189.123 53.188L190.98 59.1091Z" fill="black"/>
<path d="M177.625 62.1288L177.884 61.6432C178.107 61.2233 178.392 60.9059 178.737 60.691C179.081 60.4762 179.585 60.321 180.248 60.2255C180.882 60.1425 181.327 60.0374 181.583 59.91C181.839 59.7826 182.035 59.592 182.17 59.3383C182.322 59.054 182.332 58.7815 182.202 58.5207C182.071 58.2599 181.818 58.0291 181.442 57.8284C180.786 57.4782 179.925 57.2935 178.857 57.2739L178.909 55.4553C180.175 55.429 181.354 55.7077 182.447 56.2913C183.347 56.7721 183.948 57.3709 184.248 58.0876C184.548 58.8042 184.505 59.5235 184.121 60.2452C183.864 60.7264 183.533 61.0836 183.128 61.3168C182.723 61.5501 182.098 61.722 181.253 61.8326C180.668 61.9191 180.276 62.0135 180.078 62.1158C179.881 62.2181 179.712 62.4005 179.572 62.663L179.362 63.0566L177.625 62.1288ZM176.218 64.2608C176.414 63.8933 176.661 63.6682 176.958 63.585C177.255 63.5021 177.591 63.5608 177.967 63.7616C178.33 63.9553 178.559 64.2015 178.655 64.5002C178.752 64.7989 178.704 65.1277 178.513 65.4863C178.329 65.8319 178.083 66.0505 177.776 66.1421C177.469 66.2337 177.136 66.1838 176.777 65.9924C176.41 65.7964 176.178 65.5472 176.081 65.2453C175.984 64.9433 176.029 64.6151 176.218 64.2608Z" fill="#ECDEC6"/>
<path d="M78.6832 141.225L68.9377 156.191C68.5686 156.758 67.8101 156.918 67.2437 156.548L54.0208 147.923C53.4544 147.554 53.2944 146.795 53.6636 146.228L65.2026 128.508C65.5718 127.941 66.3302 127.781 66.8967 128.15L77.2987 134.935L77.3234 135.047L78.6832 141.225Z" fill="#F8F4EF"/>
<path opacity="0.1" d="M78.6826 141.225L75.7397 139.305C75.2785 139.004 75.1484 138.386 75.4489 137.925L77.3229 135.047L78.6826 141.225Z" fill="black"/>
<path d="M68.0982 148.212L66.3352 147.062L66.4368 143.201L62.9484 144.853L61.2949 143.774L66.1578 141.591L66.1947 136.587L67.8981 137.698L67.7596 141.344L71.0059 139.726L72.6694 140.811L68.0301 142.933L68.0982 148.212Z" fill="#ECDEC6"/>
<path d="M248.081 93.8301L254.474 110.509C254.716 111.14 254.401 111.849 253.769 112.091L239.033 117.749C238.402 117.992 237.694 117.676 237.452 117.044L229.882 97.2958C229.64 96.664 229.956 95.9554 230.587 95.713L242.179 91.2622L242.284 91.308L248.081 93.8301Z" fill="#F8F4EF"/>
<path opacity="0.1" d="M248.082 93.8301L244.802 95.0893C244.288 95.2866 243.712 95.0296 243.514 94.5153L242.285 91.3081L248.082 93.8301Z" fill="black"/>
<path d="M246.588 108.199L245.34 108.678L243.596 107.714L242.943 109.598L241.773 110.047L242.738 107.45L240.439 106.241L241.645 105.778L243.274 106.706L243.844 104.934L245.021 104.482L244.119 106.97L246.588 108.199Z" fill="#ECDEC6"/>
<path d="M246.05 96.9925L234.659 101.366C234.523 101.418 234.371 101.35 234.318 101.214C234.266 101.077 234.334 100.925 234.47 100.872L245.861 96.4991C245.997 96.4468 246.15 96.5148 246.202 96.6511C246.254 96.7874 246.186 96.9403 246.05 96.9925Z" fill="#ECDEC6"/>
<path d="M246.542 98.2249L235.152 102.598C235.016 102.651 234.863 102.582 234.811 102.446C234.758 102.31 234.826 102.157 234.962 102.105L246.353 97.7315C246.489 97.6792 246.642 97.7473 246.694 97.8836C246.746 98.0198 246.678 98.1726 246.542 98.2249Z" fill="#ECDEC6"/>
<path d="M247.034 99.4574L235.644 103.831C235.508 103.883 235.355 103.815 235.303 103.679C235.251 103.542 235.319 103.39 235.455 103.337L246.845 98.9639C246.981 98.9116 247.134 98.9797 247.186 99.116C247.238 99.2522 247.17 99.4051 247.034 99.4574Z" fill="#ECDEC6"/>
<path d="M247.525 100.69L236.134 105.063C235.998 105.115 235.845 105.047 235.793 104.911C235.741 104.775 235.809 104.622 235.945 104.57L247.335 100.196C247.472 100.144 247.624 100.212 247.677 100.348C247.729 100.485 247.661 100.638 247.525 100.69Z" fill="#ECDEC6"/>
<path d="M247.925 101.963L236.534 106.336C236.398 106.388 236.246 106.32 236.193 106.184C236.141 106.048 236.209 105.895 236.345 105.843L247.736 101.469C247.872 101.417 248.025 101.485 248.077 101.621C248.129 101.758 248.061 101.91 247.925 101.963Z" fill="#ECDEC6"/>
<path d="M81.3136 184.997L88.5034 201.347C88.7758 201.966 88.4949 202.69 87.876 202.962L73.4301 209.325C72.8112 209.598 72.0888 209.317 71.8164 208.697L63.3032 189.338C63.0309 188.718 63.3118 187.995 63.9306 187.723L75.2947 182.717L75.4022 182.758L81.3136 184.997Z" fill="#F8F4EF"/>
<path opacity="0.1" d="M81.3137 184.997L78.0985 186.413C77.5948 186.635 77.0066 186.406 76.785 185.902L75.4023 182.758L81.3137 184.997Z" fill="black"/>
<path d="M80.5146 199.421L79.2915 199.96L77.5029 199.082L76.9421 200.995L75.795 201.5L76.6338 198.859L74.2793 197.763L75.4609 197.242L77.1331 198.09L77.6169 196.293L78.7709 195.784L77.9897 198.313L80.5146 199.421Z" fill="#ECDEC6"/>
<path d="M79.4372 188.254L68.2708 193.172C68.1374 193.231 67.9815 193.17 67.9228 193.037C67.8641 192.903 67.9247 192.747 68.0582 192.688L79.2245 187.77C79.3579 187.711 79.5137 187.772 79.5725 187.905C79.6312 188.039 79.5706 188.195 79.4372 188.254Z" fill="#ECDEC6"/>
<path d="M79.9879 189.461L68.8216 194.379C68.6882 194.438 68.5323 194.377 68.4736 194.244C68.4149 194.11 68.4755 193.954 68.6089 193.895L79.7753 188.977C79.9087 188.918 80.0646 188.979 80.1233 189.112C80.182 189.246 80.1214 189.402 79.9879 189.461Z" fill="#ECDEC6"/>
<path d="M80.5387 190.668L69.3724 195.587C69.2389 195.646 69.0831 195.585 69.0244 195.451C68.9656 195.318 69.0263 195.162 69.1597 195.103L80.326 190.185C80.4595 190.126 80.6153 190.186 80.6741 190.32C80.7327 190.454 80.6722 190.61 80.5387 190.668Z" fill="#ECDEC6"/>
<path d="M81.0895 191.875L69.9232 196.794C69.7897 196.853 69.6339 196.792 69.5752 196.658C69.5164 196.525 69.577 196.369 69.7105 196.31L80.8768 191.392C81.0103 191.333 81.1661 191.393 81.2248 191.527C81.2835 191.661 81.223 191.817 81.0895 191.875Z" fill="#ECDEC6"/>
<path d="M81.5485 193.128L70.3822 198.046C70.2487 198.105 70.0929 198.044 70.0342 197.911C69.9754 197.777 70.036 197.621 70.1695 197.562L81.3358 192.644C81.4693 192.585 81.6251 192.646 81.6838 192.779C81.7425 192.913 81.6819 193.069 81.5485 193.128Z" fill="#ECDEC6"/>
<path d="M131.218 66.9672L138.408 83.3174C138.68 83.9368 138.399 84.6598 137.78 84.9324L123.334 91.2955C122.716 91.568 121.993 91.2869 121.721 90.6675L113.208 71.3081C112.935 70.6887 113.216 69.9656 113.835 69.6931L125.199 64.6875L125.306 64.7282L131.218 66.9672Z" fill="#F8F4EF"/>
<path opacity="0.1" d="M131.218 66.9671L128.003 68.3833C127.499 68.6052 126.911 68.3763 126.689 67.8721L125.307 64.728L131.218 66.9671Z" fill="black"/>
<path d="M130.419 81.3916L129.196 81.9303L127.407 81.0519L126.846 82.9652L125.699 83.4704L126.538 80.8291L124.184 79.7329L125.365 79.2124L127.037 80.0607L127.521 78.2627L128.675 77.7544L127.894 80.283L130.419 81.3916Z" fill="#ECDEC6"/>
<path d="M129.341 70.224L118.175 75.1424C118.042 75.2012 117.886 75.1406 117.827 75.007C117.768 74.8734 117.829 74.7175 117.962 74.6587L129.129 69.7402C129.262 69.6814 129.418 69.742 129.477 69.8757C129.535 70.0093 129.475 70.1652 129.341 70.224Z" fill="#ECDEC6"/>
<path d="M129.892 71.431L118.726 76.3495C118.592 76.4083 118.437 76.3477 118.378 76.214C118.319 76.0804 118.38 75.9245 118.513 75.8657L129.68 70.9473C129.813 70.8885 129.969 70.9491 130.028 71.0827C130.086 71.2163 130.026 71.3722 129.892 71.431Z" fill="#ECDEC6"/>
<path d="M130.443 72.6385L119.277 77.557C119.143 77.6158 118.987 77.5551 118.929 77.4215C118.87 77.288 118.931 77.132 119.064 77.0732L130.23 72.1548C130.364 72.096 130.52 72.1567 130.578 72.2902C130.637 72.4238 130.576 72.5797 130.443 72.6385Z" fill="#ECDEC6"/>
<path d="M130.994 73.8456L119.827 78.764C119.694 78.8228 119.538 78.7621 119.479 78.6286C119.421 78.495 119.481 78.339 119.615 78.2803L130.781 73.3618C130.915 73.303 131.07 73.3637 131.129 73.4972C131.188 73.6308 131.127 73.7868 130.994 73.8456Z" fill="#ECDEC6"/>
<path d="M131.453 75.098L120.286 80.0164C120.153 80.0753 119.997 80.0146 119.938 79.881C119.88 79.7474 119.94 79.5914 120.074 79.5327L131.24 74.6143C131.374 74.5554 131.529 74.6161 131.588 74.7497C131.647 74.8833 131.586 75.0393 131.453 75.098Z" fill="#ECDEC6"/>
<path d="M206.34 112.599H94.6621V193.704H206.34V112.599Z" fill="#F8F4EF"/>
<path d="M206.338 102.417H94.7031V112.621H206.338V102.417Z" fill="#DAC5AF"/>
<path d="M99.866 108.676C100.813 108.676 101.582 107.945 101.582 107.043C101.582 106.142 100.813 105.411 99.866 105.411C98.9185 105.411 98.1504 106.142 98.1504 107.043C98.1504 107.945 98.9185 108.676 99.866 108.676Z" fill="#F8F4EF"/>
<path d="M104.87 108.676C105.817 108.676 106.585 107.945 106.585 107.043C106.585 106.142 105.817 105.411 104.87 105.411C103.922 105.411 103.154 106.142 103.154 107.043C103.154 107.945 103.922 108.676 104.87 108.676Z" fill="#F8F4EF"/>
<path d="M109.874 108.676C110.821 108.676 111.589 107.945 111.589 107.043C111.589 106.142 110.821 105.411 109.874 105.411C108.926 105.411 108.158 106.142 108.158 107.043C108.158 107.945 108.926 108.676 109.874 108.676Z" fill="#F8F4EF"/>
<path d="M202.979 116.869H98.0215V189.434H202.979V116.869Z" fill="#F8F4EF"/>
<path d="M166.781 134.711V166.616C166.781 167.825 165.802 168.805 164.595 168.805H136.405C135.198 168.805 134.219 167.825 134.219 166.616V128.839C134.219 127.63 135.198 126.65 136.405 126.65H158.581L158.727 126.794L166.781 134.711Z" fill="#DAC5AF"/>
<path opacity="0.15" d="M166.78 134.711H160.506C159.523 134.711 158.727 133.914 158.727 132.93V126.794L166.78 134.711Z" fill="black"/>
<path d="M158.32 153.118C158.073 153.118 157.856 152.958 157.776 152.724C157.57 152.114 156.895 151.512 155.856 151.028C154.435 150.366 152.533 150.001 150.5 150.001C148.468 150.001 146.566 150.366 145.145 151.028C144.105 151.512 143.431 152.114 143.224 152.724C143.145 152.958 142.928 153.118 142.681 153.118C142.291 153.118 142.014 152.736 142.137 152.365C142.443 151.445 143.313 150.62 144.663 149.991C146.231 149.26 148.305 148.857 150.5 148.857C152.696 148.857 154.769 149.26 156.338 149.991C157.687 150.62 158.558 151.445 158.864 152.365C158.987 152.736 158.71 153.118 158.32 153.118Z" fill="white"/>
<path d="M146.299 147.084C147.609 147.084 148.671 146.021 148.671 144.71C148.671 143.4 147.609 142.337 146.299 142.337C144.99 142.337 143.928 143.4 143.928 144.71C143.928 146.021 144.99 147.084 146.299 147.084Z" fill="white"/>
<path d="M154.7 147.084C156.009 147.084 157.071 146.021 157.071 144.71C157.071 143.4 156.009 142.337 154.7 142.337C153.39 142.337 152.328 143.4 152.328 144.71C152.328 146.021 153.39 147.084 154.7 147.084Z" fill="white"/>
<path d="M141.373 179.597H140.28L138.515 176.525H138.49C138.525 177.068 138.542 177.455 138.542 177.686V179.597H137.773V175.536H138.859L140.621 178.578H140.64C140.613 178.05 140.599 177.677 140.599 177.458V175.536H141.373L141.373 179.597Z" fill="black"/>
<path d="M146.078 177.561C146.078 178.233 145.912 178.75 145.579 179.111C145.246 179.472 144.768 179.653 144.146 179.653C143.525 179.653 143.047 179.472 142.714 179.111C142.381 178.75 142.215 178.231 142.215 177.555C142.215 176.88 142.382 176.363 142.716 176.007C143.05 175.65 143.529 175.472 144.152 175.472C144.776 175.472 145.253 175.652 145.583 176.011C145.913 176.37 146.078 176.887 146.078 177.561ZM143.117 177.561C143.117 178.015 143.203 178.356 143.375 178.586C143.547 178.816 143.804 178.93 144.146 178.93C144.833 178.93 145.176 178.474 145.176 177.561C145.176 176.646 144.835 176.189 144.152 176.189C143.81 176.189 143.552 176.304 143.378 176.535C143.204 176.765 143.117 177.107 143.117 177.561Z" fill="black"/>
<path d="M151.761 177.528C151.761 178.196 151.571 178.708 151.191 179.064C150.81 179.419 150.261 179.597 149.544 179.597H148.395V175.536H149.668C150.331 175.536 150.845 175.711 151.212 176.061C151.578 176.411 151.761 176.9 151.761 177.528ZM150.867 177.55C150.867 176.678 150.483 176.242 149.713 176.242H149.255V178.886H149.624C150.453 178.886 150.867 178.441 150.867 177.55Z" fill="black"/>
<path d="M155.086 179.597L154.792 178.631H153.313L153.019 179.597H152.092L153.524 175.52H154.576L156.013 179.597H155.086ZM154.587 177.908C154.315 177.032 154.162 176.537 154.128 176.422C154.093 176.307 154.069 176.217 154.054 176.15C153.993 176.387 153.818 176.973 153.529 177.908H154.587Z" fill="black"/>
<path d="M158.089 179.597H157.229V176.253H156.127V175.536H159.191V176.253H158.089V179.597Z" fill="black"/>
<path d="M162.299 179.597L162.005 178.631H160.526L160.232 179.597H159.305L160.737 175.52H161.789L163.226 179.597H162.299ZM161.8 177.908C161.528 177.032 161.375 176.537 161.34 176.422C161.306 176.307 161.282 176.217 161.267 176.15C161.206 176.387 161.031 176.973 160.742 177.908H161.8Z" fill="black"/>
<path d="M221.647 157.841H225.039C227.592 157.841 229.663 155.769 229.663 153.214C229.663 150.658 227.592 148.586 225.039 148.586H221.647C219.094 148.586 217.023 150.658 217.023 153.214C217.023 155.769 219.094 157.841 221.647 157.841Z" fill="white"/>
<path d="M221.877 157.095H224.81C224.81 157.095 224.547 159.458 221.877 160.632C221.877 160.632 223.282 158.562 221.877 157.095Z" fill="white"/>
<path d="M222.621 154.134V153.854C222.621 153.611 222.673 153.401 222.776 153.221C222.88 153.042 223.069 152.851 223.344 152.649C223.609 152.46 223.783 152.306 223.868 152.187C223.953 152.069 223.995 151.936 223.995 151.79C223.995 151.626 223.934 151.501 223.813 151.415C223.692 151.329 223.523 151.286 223.306 151.286C222.928 151.286 222.496 151.41 222.012 151.657L221.6 150.828C222.162 150.512 222.759 150.354 223.389 150.354C223.909 150.354 224.322 150.479 224.629 150.729C224.935 150.979 225.088 151.313 225.088 151.729C225.088 152.007 225.025 152.247 224.899 152.449C224.773 152.651 224.533 152.878 224.18 153.13C223.938 153.31 223.785 153.446 223.72 153.539C223.656 153.633 223.624 153.755 223.624 153.907V154.134H222.621ZM222.5 155.429C222.5 155.217 222.557 155.057 222.67 154.948C222.784 154.84 222.949 154.785 223.166 154.785C223.376 154.785 223.538 154.841 223.652 154.952C223.767 155.063 223.825 155.222 223.825 155.429C223.825 155.629 223.767 155.786 223.65 155.901C223.534 156.015 223.373 156.073 223.166 156.073C222.954 156.073 222.79 156.017 222.674 155.904C222.558 155.792 222.5 155.634 222.5 155.429Z" fill="#DAC5AF"/>
<path opacity="0.67" d="M212.471 215.904L214.057 216.521L213.594 218.761L210.885 217.911L212.471 215.904Z" fill="#050505"/>
<path d="M190.364 210.943C190.364 210.943 186.134 210.441 185.209 212.719C185.209 212.719 185.143 218.394 187.786 218.78C187.786 218.78 190.033 219.012 191.487 218.008L199.946 217.043L205.696 216.657L190.364 210.943Z" fill="#040C2B"/>
<path d="M215.775 213.665C215.775 213.665 217.995 217.238 216.681 218.658C216.478 218.878 216.762 219.145 217.19 219.144L226.118 219.128C226.118 219.128 231.206 220.054 232.198 216.155C232.198 216.155 232.792 212.024 226.316 211.329C219.84 210.634 226.25 211.097 226.25 211.097C226.25 211.097 218.716 211.638 215.775 213.665Z" fill="#040C2B"/>
<path d="M219.309 213.838L219.285 214.067L218.78 218.78L209.363 217.95L212.463 213.89L212.502 213.838C219.309 213.993 219.309 213.838 219.309 213.838Z" fill="#DE995F"/>
<path opacity="0.38" d="M219.309 213.838L219.285 214.067L214.32 214.205L212.463 213.891L212.503 213.838C219.309 213.993 219.309 213.838 219.309 213.838Z" fill="#050505"/>
<path d="M233.76 205.704L222.794 207.836L208.406 210.634L196.977 207.972L178.93 203.767C178.106 197.565 191.091 201.136 191.091 201.136L199.546 202.085H199.547L204.507 202.642L215.741 204.186L219.31 202.773L223.54 201.098C234.939 200.113 233.76 205.704 233.76 205.704Z" fill="#081956"/>
<path opacity="0.3" d="M222.794 207.836L208.406 210.634L196.977 207.972L193.867 206.117L199.546 202.085H199.547L204.507 202.642L215.742 204.186L219.31 202.773L222.794 207.836Z" fill="black"/>
<path d="M192.348 212.758L207.878 208.704C207.878 208.704 218.98 204.573 220.897 204.804C220.897 204.804 234.643 197.739 233.717 206.387C233.717 206.387 235.303 213.182 210.786 214.225L192.348 212.758Z" fill="#081956"/>
<path opacity="0.13" d="M203.02 209.958L204.738 209.457C206.038 210.324 208.482 211.046 210.091 211.773C211.911 212.596 214.122 213.356 216.237 213.858C214.849 214.025 213.461 214.192 212.073 214.36L203.02 209.958Z" fill="black"/>
<path d="M215.048 213.974C215.048 213.974 210.521 217.583 213.561 218.78C213.561 218.78 195.993 216.807 181.94 208.95C180.875 208.354 180.12 207.594 179.765 206.759C178.477 203.729 176.699 196.837 190.563 202.719C190.563 202.719 201.333 206.381 204.882 209.532C205.562 210.135 206.368 210.686 207.304 211.157C209.526 212.277 213.292 214.026 215.048 213.974Z" fill="#081956"/>
<path d="M204.308 173.903L212.503 173.917L215.146 178.898C215.146 178.898 209.991 186.697 202.59 179.747C202.919 178.628 204.012 176.986 204.341 175.867C204.87 174.709 204.804 174.786 204.308 173.903Z" fill="#CC8B5B"/>
<path d="M225.569 182.05L223.737 196.735L195.518 196.465C195.518 196.465 197.456 188.987 197.069 187.773C197.046 187.699 197.014 187.648 196.972 187.623L189.174 187.354C189.174 187.354 189.233 186.282 189.488 184.869C189.919 182.484 190.907 179.124 193.106 178.3C193.469 178.164 194.527 177.74 194.527 177.74C194.527 177.74 204.143 175.211 204.341 175.867C204.341 175.867 203.812 183.551 214.254 177.18C214.254 177.18 226.344 180.183 225.569 182.05Z" fill="white"/>
<path d="M219.838 197.468L220.416 202.334L226.931 200.356C228.407 199.907 229.419 199.061 229.601 198.094C229.763 197.234 229.661 196.009 228.892 194.303L227.438 187.855C227.438 187.855 228.132 183.396 224.761 180.886C224.761 180.886 223.539 188.28 221.358 189.515L220.895 195.692L219.838 197.468Z" fill="white"/>
<path opacity="0.1" d="M201.567 179.477L197.069 187.773C197.046 187.698 197.014 187.648 196.972 187.623L189.174 187.353C189.174 187.353 189.233 186.282 189.488 184.869L197.404 177.469C197.404 177.469 200.774 179.438 201.567 179.477Z" fill="black"/>
<path d="M203.033 174.544C202.84 175.835 202.612 176.231 201.93 178.281L200.872 180.288L197.898 178.281L198.691 177.47L198.295 173.802L199.299 171.345C199.655 170.472 200.54 169.915 201.478 170.016C202.528 170.129 203.555 171.053 203.033 174.544Z" fill="#DE995F"/>
<path opacity="0.13" d="M195.057 187.006L197.12 188.345L196.477 192.469L201.93 180.211L199.98 179.686L195.057 187.006Z" fill="black"/>
<path d="M197.765 177.47C197.765 177.47 201.136 179.439 201.929 179.477L195.585 191.176C195.585 191.176 191.507 196.231 187.32 192.429C184.74 190.087 185.571 186.966 189.343 185.263C189.396 185.239 189.45 185.215 189.505 185.191L197.765 177.47Z" fill="white"/>
<path opacity="0.13" d="M204.275 175.752C204.275 175.752 208.197 181.417 213.341 175.496L211.743 173.165L205.234 173.905L204.275 175.752Z" fill="black"/>
<path d="M202.59 165.887C202.59 165.887 210.124 161.756 213.164 165.385C213.164 165.385 219.442 171.756 209.661 177.47C209.661 177.47 203.317 180.288 202.59 165.887Z" fill="#DE995F"/>
<path d="M203.408 171.908L201.444 168.62C200.993 167.866 200.789 167.068 200.848 166.27C201.03 163.769 202.555 158.968 211.909 161.061C211.909 161.061 220.103 164.652 215.544 169.246L214.024 172.566C214.024 172.566 214.222 166.582 211.909 166.273C211.909 166.273 206.622 167.432 203.185 167.354C203.186 167.354 203.086 171.466 203.408 171.908Z" fill="black"/>
<path d="M205.234 171.215C206.219 171.215 207.018 170.749 207.018 170.173C207.018 169.597 206.219 169.13 205.234 169.13C204.248 169.13 203.449 169.597 203.449 170.173C203.449 170.749 204.248 171.215 205.234 171.215Z" stroke="black" stroke-width="2.0633" stroke-miterlimit="10"/>
<path d="M210.652 171.061C211.637 171.061 212.436 170.594 212.436 170.019C212.436 169.443 211.637 168.976 210.652 168.976C209.666 168.976 208.867 169.443 208.867 170.019C208.867 170.594 209.666 171.061 210.652 171.061Z" stroke="black" stroke-width="2.0633" stroke-miterlimit="10"/>
<path d="M206.998 170.019C206.998 170.019 207.811 170.559 208.868 170.019" stroke="black" stroke-width="2.0633" stroke-miterlimit="10"/>
<path d="M203.449 170.173L202.557 169.575" stroke="black" stroke-width="2.0633" stroke-miterlimit="10"/>
<path d="M212.436 170.019L214.682 169.749" stroke="black" stroke-width="2.0633" stroke-miterlimit="10"/>
<path opacity="0.13" d="M220.4 197.295C220.4 197.295 222.383 195.75 224.762 195.596C224.762 195.596 224.233 195.249 222.779 195.596C222.779 195.596 224.101 194.785 225.621 195.094C225.621 195.094 222.449 193.897 220.4 197.295Z" fill="black"/>
<path d="M194.181 192.518L220.664 192.188C221.046 192.183 221.359 192.492 221.359 192.875V203.898C221.359 204.275 221.056 204.581 220.68 204.585L194.726 204.874C194.357 204.878 194.051 204.589 194.033 204.221L193.505 193.238C193.486 192.849 193.793 192.523 194.181 192.518Z" fill="#B58B5D"/>
<path opacity="0.13" d="M194.693 204.244C194.693 204.244 190.267 201.48 182.203 200.654C182.203 200.654 186.234 200.383 195.09 203.433L194.693 204.244Z" fill="black"/>
<path opacity="0.13" d="M221.392 204.592C221.392 204.592 229.392 200.493 232.579 202.687C232.579 202.687 230.908 200.268 220.4 204.36L221.392 204.592Z" fill="black"/>
<path opacity="0.13" d="M221.326 189.496C221.326 189.496 225.754 186.176 225.622 184.477C225.622 184.477 224.432 185.983 224.102 186.253C224.102 186.253 225.754 184.207 225.093 183.396C225.093 183.396 224.171 185.966 223.475 186.013L221.326 189.496Z" fill="black"/>
<path opacity="0.13" d="M221.293 189.477C221.293 189.477 224.597 182.991 223.936 182.643C223.936 182.643 223.804 183.917 221.293 189.477Z" fill="black"/>
</g>
<defs>
<clipPath id="clip0_3794_3623">
<rect width="301" height="241" fill="white"/>
</clipPath>
</defs>
</svg>
