<svg width="64" height="64" viewBox="0 0 64 64" fill="none" xmlns="http://www.w3.org/2000/svg">
<path d="M26.4539 46.5067C37.0578 46.5067 45.6539 37.9105 45.6539 27.3067C45.6539 16.7028 37.0578 8.10666 26.4539 8.10666C15.85 8.10666 7.25391 16.7028 7.25391 27.3067C7.25391 37.9105 15.85 46.5067 26.4539 46.5067Z" fill="#FFDED5"/>
<path d="M18.3457 28.5867L24.319 55.04H25.1724C27.0576 55.04 28.5857 53.5119 28.5857 51.6267V46.5067H45.6524L49.0657 55.04C50.9509 55.04 52.479 53.5119 52.479 51.6267V32.396C52.479 30.2921 50.7734 28.5867 48.6698 28.5867H18.3457Z" fill="#E7D1C4"/>
<path d="M49.0673 55.8933C48.7181 55.8933 48.4049 55.6809 48.2748 55.357L45.0765 47.36H29.4407V51.6267C29.4407 53.9791 27.5264 55.8933 25.174 55.8933H24.3207C23.9215 55.8933 23.5766 55.6171 23.4882 55.228L17.5149 28.7746C17.4582 28.5216 17.5192 28.2562 17.6807 28.0538C17.8422 27.8513 18.0881 27.7333 18.3473 27.7333H48.6716C51.2425 27.7333 53.334 29.8251 53.334 32.3957V51.6267C53.334 53.9791 51.4198 55.8933 49.0673 55.8933ZM25.0031 54.1867H25.174C26.5856 54.1867 27.734 53.0383 27.734 51.6267V46.5067C27.734 46.0354 28.1156 45.6533 28.5873 45.6533H45.654C46.0032 45.6533 46.3164 45.8658 46.4465 46.1897L49.6207 54.1263C50.7674 53.8726 51.6273 52.8484 51.6273 51.6267V32.3957C51.6273 30.7657 50.3015 29.44 48.6716 29.44H19.4148L25.0031 54.1867Z" fill="#4C241D"/>
<path d="M30.7205 39.68C33.7838 39.68 36.2672 37.1967 36.2672 34.1333C36.2672 31.07 33.7838 28.5867 30.7205 28.5867C27.6572 28.5867 25.1738 31.07 25.1738 34.1333C25.1738 37.1967 27.6572 39.68 30.7205 39.68Z" fill="#BF7E68"/>
<path d="M30.7203 40.5333C27.1911 40.5333 24.3203 37.6625 24.3203 34.1333C24.3203 30.6042 27.1911 27.7333 30.7203 27.7333C34.2495 27.7333 37.1203 30.6042 37.1203 34.1333C37.1203 37.6625 34.2495 40.5333 30.7203 40.5333ZM30.7203 29.44C28.1328 29.44 26.027 31.5454 26.027 34.1333C26.027 36.7213 28.1328 38.8267 30.7203 38.8267C33.3078 38.8267 35.4136 36.7213 35.4136 34.1333C35.4136 31.5454 33.3078 29.44 30.7203 29.44Z" fill="#4C241D"/>
<path d="M55.8928 39.68C55.4212 39.68 55.0395 39.2979 55.0395 38.8267V33.2742C55.0395 32.1013 54.0853 31.1467 52.9119 31.1467C52.4402 31.1467 52.0586 30.7646 52.0586 30.2933C52.0586 29.8221 52.4402 29.44 52.9119 29.44C55.0261 29.44 56.7462 31.1599 56.7462 33.2742V38.8267C56.7462 39.2979 56.3645 39.68 55.8928 39.68Z" fill="#4C241D"/>
<path d="M29.4394 25.1733H14.9327H10.666V26.0267C10.666 28.3832 12.5762 30.2933 14.9327 30.2933V34.1333C14.9327 38.1393 18.1803 41.3867 22.186 41.3867C26.1918 41.3867 29.4394 38.1393 29.4394 34.1333V30.2933C31.7958 30.2933 33.706 28.3832 33.706 26.0267V25.1733H29.4394Z" fill="#E7D1C4"/>
<path d="M22.1858 42.24C17.7159 42.24 14.0792 38.6033 14.0792 34.1333V31.0754C11.6608 30.668 9.8125 28.5592 9.8125 26.0267V25.1733C9.8125 24.7021 10.1942 24.32 10.6658 24.32H33.7058C34.1775 24.32 34.5592 24.7021 34.5592 25.1733V26.0267C34.5592 28.5592 32.7108 30.668 30.2925 31.0754V34.1333C30.2925 38.6033 26.6558 42.24 22.1858 42.24ZM11.5192 26.0267C11.5192 27.9087 13.05 29.44 14.9325 29.44C15.4042 29.44 15.7858 29.8221 15.7858 30.2933V34.1333C15.7858 37.6625 18.6567 40.5333 22.1858 40.5333C25.715 40.5333 28.5858 37.6625 28.5858 34.1333V30.2933C28.5858 29.8221 28.9675 29.44 29.4392 29.44C31.3216 29.44 32.8525 27.9087 32.8525 26.0267H11.5192Z" fill="#4C241D"/>
<path d="M24.3201 34.56C24.7914 34.56 25.1735 34.1779 25.1735 33.7067C25.1735 33.2354 24.7914 32.8533 24.3201 32.8533C23.8488 32.8533 23.4668 33.2354 23.4668 33.7067C23.4668 34.1779 23.8488 34.56 24.3201 34.56Z" fill="#4C241D"/>
<path d="M20.0526 34.56C20.5238 34.56 20.9059 34.1779 20.9059 33.7067C20.9059 33.2354 20.5238 32.8533 20.0526 32.8533C19.5813 32.8533 19.1992 33.2354 19.1992 33.7067C19.1992 34.1779 19.5813 34.56 20.0526 34.56Z" fill="#4C241D"/>
<path d="M23.4659 29.44C25.8224 29.44 27.7326 27.5298 27.7326 25.1733H19.1992C19.1992 27.5298 21.1094 29.44 23.4659 29.44Z" fill="#BF7E68"/>
<path d="M23.4657 30.2933C20.6424 30.2933 18.3457 27.9966 18.3457 25.1733C18.3457 24.7021 18.7274 24.32 19.199 24.32H27.7324C28.204 24.32 28.5857 24.7021 28.5857 25.1733C28.5857 27.9966 26.289 30.2933 23.4657 30.2933ZM20.1607 26.0267C20.5398 27.4972 21.8783 28.5867 23.4657 28.5867C25.0531 28.5867 26.3916 27.4972 26.7707 26.0267H20.1607Z" fill="#4C241D"/>
<path d="M52.4794 44.714V36.3526C52.2035 36.2967 51.9183 36.2667 51.626 36.2667C49.2696 36.2667 47.3594 38.1768 47.3594 40.5333C47.3594 42.8898 49.2696 44.8 51.626 44.8C51.9183 44.8 52.2035 44.7699 52.4794 44.714Z" fill="#BF7E68"/>
<path d="M51.6259 45.6533C48.8026 45.6533 46.5059 43.3566 46.5059 40.5333C46.5059 37.7101 48.8026 35.4133 51.6259 35.4133C51.9676 35.4133 52.3117 35.4479 52.6484 35.5162C53.0467 35.5966 53.3325 35.9467 53.3325 36.3524V44.714C53.3325 45.1198 53.0467 45.4699 52.6484 45.5503C52.3117 45.6188 51.9676 45.6533 51.6259 45.6533ZM51.6259 37.12C49.7434 37.12 48.2125 38.6513 48.2125 40.5333C48.2125 42.4154 49.7434 43.9467 51.6259 43.9467V37.12Z" fill="#4C241D"/>
<path d="M39.2542 42.24C37.6048 42.24 36.2676 43.5772 36.2676 45.2267C36.2676 45.6868 36.3802 46.1173 36.566 46.5067H41.9425C42.1283 46.1173 42.2409 45.6868 42.2409 45.2267C42.2409 43.5772 40.9037 42.24 39.2542 42.24Z" fill="#BF7E68"/>
<path d="M41.9425 47.36H36.5658C36.2367 47.36 35.9376 47.1712 35.7959 46.8747C35.5425 46.3441 35.4141 45.7896 35.4141 45.2267C35.4141 43.1091 37.1365 41.3867 39.2541 41.3867C41.3716 41.3867 43.0941 43.1091 43.0941 45.2267C43.0941 45.7896 42.9656 46.3441 42.7124 46.8747C42.5708 47.1712 42.2717 47.36 41.9425 47.36ZM37.1674 45.6533H41.3407C41.3716 45.5117 41.3874 45.3692 41.3874 45.2267C41.3874 44.0503 40.4308 43.0933 39.2541 43.0933C38.0773 43.0933 37.1207 44.0503 37.1207 45.2267C37.1207 45.3692 37.1365 45.5117 37.1674 45.6533Z" fill="#4C241D"/>
<path d="M26.5858 26.0267C26.1141 26.0267 25.7324 25.6446 25.7324 25.1733C25.7324 24.7021 26.1141 24.32 26.5858 24.32C28.1591 24.32 29.4391 23.04 29.4391 21.4671V20.0533C29.4391 19.5821 29.8207 19.2 30.2924 19.2C30.7641 19.2 31.1458 19.5821 31.1458 20.0533V21.4671C31.1458 23.9812 29.0999 26.0267 26.5858 26.0267Z" fill="#4C241D"/>
<path d="M17.7866 26.0267C15.2724 26.0267 13.2266 23.9812 13.2266 21.4671V20.0533C13.2266 19.5821 13.6082 19.2 14.0799 19.2C14.5516 19.2 14.9332 19.5821 14.9332 20.0533V21.4671C14.9332 23.04 16.2132 24.32 17.7866 24.32C18.2582 24.32 18.6399 24.7021 18.6399 25.1733C18.6399 25.6446 18.2582 26.0267 17.7866 26.0267Z" fill="#4C241D"/>
</svg>
