<svg width="44" height="30" viewBox="0 0 44 30" fill="none" xmlns="http://www.w3.org/2000/svg">
<path d="M1.11538 29.5004C0.483333 29.5004 0 29.017 0 28.385V20.5773C0 19.9452 0.483333 19.4619 1.11538 19.4619C1.74743 19.4619 2.23077 19.9452 2.23077 20.5773V28.385C2.23077 29.017 1.74743 29.5004 1.11538 29.5004Z" fill="#444B54"/>
<path d="M26.9565 18.346L15.4308 16.4871C14.836 16.3755 14.2411 16.7845 14.1667 17.4165C14.0552 18.0114 14.4642 18.6063 15.0962 18.6806L19.5578 19.3871L18.2565 25.5217C18.1449 26.1165 18.5167 26.7114 19.1116 26.8601C19.186 26.8601 19.2603 26.8973 19.3347 26.8973C19.8552 26.8973 20.3014 26.5255 20.4129 26.005L21.7142 19.7589L25.618 20.3909V28.3845C25.618 29.0165 26.1013 29.4999 26.7334 29.4999C27.3654 29.4999 27.8488 29.0165 27.8488 28.3845V19.4614C27.886 18.9037 27.477 18.4576 26.9565 18.346Z" fill="#444B54"/>
<path d="M12.0458 18.0489C11.674 17.5655 10.9676 17.454 10.4842 17.8258L7.91884 19.722L5.465 19.0899C4.87013 18.9412 4.27526 19.313 4.12654 19.9078C3.97783 20.5027 4.34962 21.0976 4.94449 21.2463L5.98551 21.5066C5.98551 21.5437 6.02269 21.6181 6.02269 21.6553L8.25346 27.604C8.43936 28.0501 8.84833 28.3104 9.29448 28.3104C9.4432 28.3104 9.55474 28.2732 9.70346 28.236C10.2983 28.013 10.5586 27.3809 10.3727 26.786L8.5509 21.9155C8.66243 21.8784 8.77397 21.804 8.88551 21.7296L11.8599 19.4989C12.306 19.2386 12.4176 18.5322 12.0458 18.0489Z" fill="#444B54"/>
<path d="M43.0166 7.97306L35.3948 6.15127L27.9218 1.28077C27.141 0.760255 26.2487 0.5 25.282 0.5H4.83333C2.15641 0.5 0 2.65641 0 5.33333V16.1154C0 16.7474 0.483333 17.2307 1.11538 17.2307C1.74743 17.2307 2.23077 16.7474 2.23077 16.1154V5.33333C2.23077 4.14358 3.04871 3.13974 4.12692 2.8423L4.75897 4.32948C5.50256 6.07691 7.17563 7.11794 8.96024 7.11794C9.48075 7.11794 10.0013 7.04358 10.5218 6.85768L12.9384 5.96538C13.2359 5.85384 13.5333 5.81666 13.8679 5.81666L15.6897 5.9282C17.7718 6.03973 19.6679 4.70127 20.3 2.76794H25.282C25.8025 2.76794 26.2859 2.91666 26.6948 3.17692L34.3166 8.15896C34.4282 8.23332 34.5397 8.2705 34.6512 8.30768L37.923 9.05127V17.5654C37.923 18.3833 37.2538 19.0897 36.3987 19.0897C35.9897 19.0897 35.6179 18.941 35.3205 18.6436L30.8961 14.2192C30.45 13.7731 29.7435 13.7731 29.3346 14.2192C28.8884 14.6654 28.8884 15.3718 29.3346 15.7807L33.7589 20.2051C34.4653 20.9115 35.3948 21.3205 36.3987 21.3205C38.4807 21.3205 40.1538 19.6474 40.1538 17.5654V9.57178L42.4961 10.1295C43.091 10.2782 43.6858 9.90639 43.8345 9.31152C43.9833 8.71665 43.6115 8.12178 43.0166 7.97306Z" fill="#444B54"/>
<path d="M24.7227 11.3557L23.0125 10.0916C22.4176 9.64547 21.674 9.53393 21.0048 9.71983L19.1086 10.2775C18.1048 10.575 17.4355 11.4673 17.4355 12.5455C17.4355 13.5865 18.142 14.4788 19.183 14.739L22.7894 15.6685C22.9753 15.7057 23.1612 15.7429 23.3843 15.7429C23.9048 15.7429 24.3881 15.5942 24.7971 15.2596C25.3548 14.8134 25.6894 14.1442 25.6894 13.4378V13.2147C25.6522 12.4711 25.3176 11.7647 24.7227 11.3557Z" fill="#444B54"/>
</svg>
