<svg width="62" height="62" viewBox="0 0 62 62" fill="none" xmlns="http://www.w3.org/2000/svg">
<path d="M57.0189 12.0489L57.0181 12.0099C57.0136 11.7739 56.8274 11.6414 56.6936 11.6391L56.6713 11.6387L56.649 11.6378C51.9986 11.4533 39.9782 10.1985 31.2733 2.15332L31.1811 2.09381L31.1137 2.02984C31.0762 2.01269 31.0359 2.00265 30.9935 2.00016C30.9301 2.00361 30.8611 2.02911 30.7969 2.08972L30.7905 2.09583L30.7839 2.10187C22.0667 10.1902 10.0284 11.4519 5.37349 11.6378L5.35081 11.6387L5.32812 11.6391C5.16224 11.6419 4.98431 11.7935 4.98143 12.0111L4.98112 12.034L4.98029 12.0569L4.97176 12.2929C5.74596 34.2124 18.8076 51.2871 30.8043 59.9317C30.8092 59.9351 30.8141 59.9386 30.8191 59.9421L30.8192 59.942C30.8771 59.9826 30.9349 60 30.9998 60C31.0654 60 31.1218 59.9814 31.1707 59.9474C31.1714 59.947 31.172 59.9465 31.1727 59.9461L31.2956 59.8584C31.3055 59.8509 31.3143 59.8445 31.3218 59.8391C31.3301 59.833 31.3388 59.8269 31.3468 59.8212C37.9176 55.0511 43.9864 48.3483 48.4045 40.9593L57.0189 12.0489ZM57.0189 12.0489L57.0212 12.0878M57.0189 12.0489L57.0212 12.0878M57.0212 12.0878L57.0289 12.2215C56.85 17.433 55.9653 22.6204 54.3939 27.642L54.3937 27.6427M57.0212 12.0878L54.3937 27.6427M54.3937 27.6427C52.9608 32.2272 50.9451 36.7077 48.4048 40.9589L54.3937 27.6427Z" fill="white" stroke="#BB7B37" stroke-width="4"/>
<path d="M53.8445 13.3246C50.785 13.0276 47.7747 12.4571 44.9024 11.6285C39.8505 10.1697 35.444 7.9653 31.8035 5.07523C31.3323 4.70165 30.6662 4.70165 30.197 5.07426C26.5547 7.96349 22.148 10.1678 17.1018 11.6265C14.224 12.4581 11.2136 13.0295 8.15041 13.3256C7.45035 13.3937 6.93194 14.0125 6.98861 14.7145C7.32538 18.9338 8.14847 23.1362 9.42942 27.2042C10.8352 31.661 12.805 36.011 15.2854 40.1356C19.1812 46.6162 24.481 52.6539 30.2027 57.1342C30.4374 57.3178 30.7193 57.4104 30.9993 57.4104C31.2812 57.4104 31.5631 57.3177 31.7958 57.1342C35.8866 53.9311 41.8145 48.3493 46.8209 39.9542C51.5494 32.0281 54.3042 23.5356 55.008 14.7126C55.0649 14.0105 54.5465 13.3927 53.8445 13.3246Z" fill="#BB7B37" fill-opacity="0.5"/>
<g opacity="0.2">
<path d="M30.9994 49.0843C30.286 49.0843 29.707 48.5054 29.707 47.7901V14.2082C29.707 13.4949 30.286 12.916 30.9994 12.916C31.7127 12.916 32.2917 13.495 32.2917 14.2082V47.7901C32.2917 48.5054 31.7127 49.0843 30.9994 49.0843Z" fill="white"/>
</g>
<g clip-path="url(#clip0_4045_5936)">
<path d="M40.536 31.8955H35.8706C35.4263 33.2893 36.5371 34.0194 37.2036 36.1434V39.3292H39.203L40.536 35.6124V31.8955Z" fill="#BE9C85"/>
<path d="M39.2026 39.8631H37.2032C36.8342 39.8631 36.5367 39.6261 36.5367 39.3321V36.2126C36.2986 35.473 36.0011 34.9105 35.7432 34.4111C35.287 33.5451 34.8943 32.7992 35.2235 31.7657C35.2989 31.5286 35.5647 31.3643 35.8702 31.3643H40.5356C40.9045 31.3643 41.2021 31.6013 41.2021 31.8952V35.6121C41.2021 35.6627 41.1941 35.7101 41.1782 35.7575L39.8453 39.4744C39.762 39.7051 39.5001 39.8631 39.2026 39.8631ZM37.8696 38.8012H38.6988L39.8691 35.5394V32.4262H36.4375C36.4058 32.9256 36.6359 33.3618 36.9691 34.0002C37.2428 34.5185 37.58 35.1665 37.8458 36.0167C37.8577 36.0578 37.8657 36.102 37.8657 36.1462V38.8012H37.8696Z" fill="#7F5334"/>
<path d="M27.2031 33.4887L23.2002 32.4268L23.8706 35.0848V39.3327H25.8701L27.2031 35.0848V33.4887Z" fill="#BE9C85"/>
<path d="M25.8699 39.8632H23.8704C23.5015 39.8632 23.2039 39.6262 23.2039 39.3323V35.135L22.5494 32.5306C22.5018 32.3442 22.5851 32.1545 22.7596 32.0281C22.9381 31.9017 23.1881 31.8606 23.4102 31.9238L27.4091 32.9858C27.6829 33.0585 27.8654 33.2608 27.8654 33.4883V35.0813C27.8654 35.1255 27.8574 35.1666 27.8455 35.2108L26.5126 39.4587C26.4411 39.6989 26.1753 39.8632 25.8699 39.8632ZM24.5369 38.8013H25.3502L26.5364 35.018V33.8739L24.0807 33.2228L24.521 34.9801C24.529 35.0149 24.5329 35.0496 24.5329 35.0844V38.8013H24.5369Z" fill="#7F5334"/>
<path d="M38.8703 36.6734C40.5267 36.6734 41.8694 35.6036 41.8694 34.2839C41.8694 32.9643 40.5267 31.8945 38.8703 31.8945C37.2139 31.8945 35.8711 32.9643 35.8711 34.2839C35.8711 35.6036 37.2139 36.6734 38.8703 36.6734Z" fill="white"/>
<path d="M38.8698 37.208C36.8465 37.208 35.2041 35.8963 35.2041 34.2876C35.2041 32.6757 36.8505 31.3672 38.8698 31.3672C40.893 31.3672 42.5354 32.6788 42.5354 34.2876C42.5354 35.8963 40.889 37.208 38.8698 37.208ZM38.8698 32.426C37.5844 32.426 36.5371 33.2604 36.5371 34.2844C36.5371 35.3085 37.5844 36.1429 38.8698 36.1429C40.1551 36.1429 41.2024 35.3085 41.2024 34.2844C41.2024 33.2604 40.1551 32.426 38.8698 32.426Z" fill="#7F5334"/>
<path d="M45.2012 26.5851C45.2012 24.8246 43.412 23.3992 41.2023 23.3992C36.2632 23.8891 33.5497 23.9713 29.2017 23.3992L24.6672 23.8038L21.6125 22.5522C20.3986 22.1445 18.9902 22.3436 18.0381 23.0737C17.8397 23.2254 17.3557 23.6868 16.8043 24.2273C15.7808 25.226 14.5391 25.9561 14.5391 25.9561C14.5787 26.6009 14.7731 28.0611 15.5666 27.9378L17.8715 27.6502C18.2642 27.7482 19.3433 27.7134 20.1526 27.3405C20.5414 27.1603 22.763 31.9486 22.763 31.9486C23.4493 32.9063 24.0602 33.4942 25.4408 33.4942H27.2062V35.0871L27.8727 39.335H29.8681L30.5346 35.0871V32.9569C33.6727 33.4815 36.525 33.9367 39.2029 33.4879C39.2306 34.6352 41.2023 34.0188 41.8688 36.1428V39.3286H44.5347V36.6737L45.2012 33.4879L44.5347 30.8772L45.2012 26.5851Z" fill="white"/>
<path d="M44.5343 39.8632H41.8684C41.4994 39.8632 41.2019 39.6261 41.2019 39.3322V36.2127C40.8964 35.3024 40.3529 35.0749 39.7777 34.8347C39.4127 34.683 38.9565 34.487 38.7105 34.1014C36.2747 34.389 33.7119 34.0287 31.2007 33.6147V35.0843C31.2007 35.1065 31.1967 35.1286 31.1967 35.1507L30.5302 39.3986C30.4906 39.6641 30.2049 39.8632 29.8677 39.8632H27.8683C27.5311 39.8632 27.2494 39.6641 27.2058 39.3986L26.5393 35.1507C26.5353 35.1286 26.5353 35.1065 26.5353 35.0843V34.0224H25.4364C23.6313 34.0224 22.8657 33.1627 22.1794 32.2082C22.1595 32.1829 22.1437 32.1576 22.1318 32.1292C21.3859 30.5236 20.4418 28.6746 19.9776 27.9888C19.1802 28.2353 18.3352 28.2638 17.8393 28.1879L15.6613 28.4597C15.3598 28.5071 15.0385 28.4439 14.7727 28.2796C14.2451 27.9509 13.9396 27.1765 13.8642 25.9787C13.8523 25.8017 13.9555 25.631 14.134 25.5235C14.1459 25.5172 15.3241 24.8187 16.2762 23.8863C17.1728 23.0108 17.4426 22.7833 17.5656 22.6853C18.7081 21.813 20.3941 21.5665 21.862 22.0595L24.7858 23.2542L29.1219 22.8686C29.1814 22.8623 29.2449 22.8655 29.3044 22.8718C33.6524 23.4438 36.35 23.3395 41.1146 22.8686C41.1424 22.8655 41.1701 22.8655 41.1979 22.8655C43.7726 22.8655 45.8633 24.5343 45.8633 26.5823C45.8633 26.6045 45.8633 26.6266 45.8593 26.6487L45.2047 30.8555L45.8474 33.3808C45.8633 33.444 45.8672 33.5104 45.8514 33.5736L45.1928 36.7184V39.329C45.2008 39.6261 44.9032 39.8632 44.5343 39.8632ZM42.5348 38.8012H43.8678V36.6773C43.8678 36.6488 43.8718 36.6204 43.8757 36.5888L44.5224 33.4977L43.8797 30.9819C43.8638 30.925 43.8638 30.8681 43.8718 30.8112L44.5343 26.5507C44.5144 25.1095 43.0466 23.9432 41.2415 23.9274C36.4016 24.4047 33.6325 24.5121 29.1854 23.9306L24.7422 24.3257C24.6112 24.3383 24.4803 24.3193 24.3653 24.2688L21.3066 23.0172C20.3743 22.7074 19.2556 22.8686 18.4978 23.447C18.4106 23.5134 18.1448 23.7441 17.3196 24.5501C16.55 25.3023 15.6732 25.9028 15.2289 26.1904C15.2964 26.8257 15.4471 27.2397 15.5622 27.3914L17.7719 27.1165C17.871 27.1038 17.9742 27.1101 18.0734 27.1354C18.2995 27.1923 19.1842 27.167 19.8229 26.8731C19.9935 26.7941 20.2474 26.7783 20.4299 26.832C20.7234 26.9174 21.2114 27.0564 23.3735 31.7151C24.0043 32.5906 24.4406 32.9573 25.4443 32.9573H27.2097C27.5787 32.9573 27.8762 33.1943 27.8762 33.4882V35.0496L28.4633 38.8012H29.2845L29.8677 35.0496V32.9573C29.8677 32.7961 29.959 32.6444 30.1137 32.5464C30.2684 32.4452 30.4747 32.4073 30.6691 32.4389C33.5135 32.9162 36.4492 33.4061 39.0596 32.9699C39.254 32.9351 39.4563 32.9762 39.611 33.0742C39.7658 33.1722 39.861 33.3207 39.8649 33.4788C39.8689 33.6431 39.8848 33.6779 40.3965 33.8928C41.0591 34.1709 42.0627 34.5945 42.511 36.0167C42.5229 36.0578 42.5309 36.1021 42.5309 36.1463V38.8012H42.5348ZM15.4471 27.4104C15.4431 27.4104 15.4392 27.4104 15.4352 27.4136L15.4471 27.4104Z" fill="#7F5334"/>
<path d="M30.5346 34.0189C30.1657 34.0189 29.8682 33.7819 29.8682 33.4879V31.364C29.8682 31.0701 30.1657 30.833 30.5346 30.833C30.9036 30.833 31.2011 31.0701 31.2011 31.364V33.4879C31.2011 33.7819 30.9036 34.0189 30.5346 34.0189Z" fill="#7F5334"/>
<path d="M39.2021 34.0189C38.8807 34.0189 38.5991 33.8356 38.5435 33.5764L37.877 30.3905C37.8175 30.0997 38.0635 29.8279 38.4245 29.7805C38.7895 29.7331 39.1307 29.9291 39.1902 30.2167L39.8567 33.4026C39.9162 33.6933 39.6702 33.9651 39.3092 34.0126C39.2735 34.0189 39.2378 34.0189 39.2021 34.0189Z" fill="#7F5334"/>
<path d="M27.2016 34.0191C27.031 34.0191 26.8604 33.9685 26.7295 33.8642L25.3966 32.8022C25.1347 32.5936 25.1347 32.2586 25.3966 32.05C25.6584 31.8414 26.0789 31.8414 26.3408 32.05L27.6737 33.112C27.9355 33.3206 27.9355 33.6556 27.6737 33.8642C27.5428 33.9685 27.3722 34.0191 27.2016 34.0191Z" fill="#7F5334"/>
<path d="M19.8662 22.8654L22.5321 21.2725C22.5321 21.2725 23.2542 22.8654 22.5321 23.3964C21.8101 23.9274 21.1992 23.9274 21.1992 23.9274L19.8662 22.8654Z" fill="#BE9C85"/>
<path d="M21.199 24.4585C20.83 24.4585 20.5325 24.2215 20.5325 23.9275C20.5325 23.6336 20.83 23.3966 21.199 23.3966C21.195 23.3966 21.5838 23.3713 22.0797 23.0078C22.2066 22.9162 22.2185 22.5716 22.1392 22.1734L20.2667 23.2923C19.9731 23.4693 19.5526 23.4187 19.3344 23.1848C19.1123 22.9509 19.1718 22.6159 19.4693 22.4421L22.1352 20.8491C22.3019 20.748 22.524 20.7164 22.7263 20.7638C22.9287 20.8112 23.0913 20.9345 23.1627 21.0925C23.3095 21.4149 23.9839 23.0552 22.9882 23.7885C22.0995 24.4396 21.2902 24.4585 21.199 24.4585Z" fill="#7F5334"/>
<path d="M25.9043 25.6532C25.8805 25.5236 25.8686 25.3908 25.8686 25.2581C25.8686 24.6607 26.0947 24.1045 26.4835 23.6399L29.205 23.3965C32.9778 23.8927 35.5207 23.8959 39.353 23.5672C39.6743 23.8864 39.8727 24.2846 39.8727 24.7239C39.8727 25.7511 38.8293 26.5824 37.54 26.5824C37.421 26.5824 37.3019 26.5666 37.1869 26.5539C37.1988 26.6519 37.2067 26.7499 37.2067 26.8479C37.2067 28.4598 35.5643 29.7683 33.5411 29.7683C32.0891 29.7683 30.8395 29.0951 30.2444 28.1184C30.0183 28.1532 29.7802 28.1722 29.5422 28.1722C28.6496 28.1722 27.8363 27.9193 27.1976 27.4989C27.0032 27.5874 26.7811 27.6412 26.5391 27.6412C25.8012 27.6412 25.2061 27.1671 25.2061 26.5792C25.2021 26.181 25.4878 25.8333 25.9043 25.6532Z" fill="#BE9C85"/>
<path d="M34.1673 30.2611C33.842 30.2611 33.5604 30.0746 33.5088 29.8218C33.4414 29.5342 33.6873 29.2592 34.0483 29.2055C35.4963 29.0095 36.5357 28.0202 36.5357 26.854C36.5357 26.7781 36.5278 26.6991 36.5238 26.6138C36.504 26.4494 36.5754 26.2914 36.7262 26.1744C36.8809 26.0638 37.0872 26.0101 37.2855 26.0354C37.4125 26.0512 37.4839 26.0575 37.5394 26.0575C38.4598 26.0575 39.2056 25.4633 39.2056 24.73C39.2056 24.5214 39.1461 24.3223 39.0192 24.1358C37.3728 24.2686 36.02 24.3318 34.7664 24.3318H34.7386C32.9851 24.3318 31.2713 24.2085 29.1846 23.9399L26.8837 24.1485C26.6575 24.493 26.5385 24.8723 26.5385 25.2642C26.5385 25.359 26.5504 25.4665 26.5702 25.5866C26.602 25.811 26.4711 26.0227 26.2251 26.127C26.0029 26.2218 25.872 26.3925 25.872 26.5885C25.872 26.9709 26.3917 27.2585 26.8638 27.0468C27.0979 26.9393 27.4113 26.9614 27.6255 27.1005C28.165 27.4608 28.8315 27.6536 29.5377 27.6536H29.625H29.6527C30.0137 27.6536 30.3073 27.878 30.3113 28.1625C30.3232 28.4532 30.0375 28.7029 29.6726 28.7156C28.78 28.7377 27.8596 28.5291 27.0979 28.115C26.9194 28.1625 26.725 28.1846 26.5385 28.1846C25.4396 28.1846 24.5391 27.4671 24.5391 26.5916C24.5391 26.1397 24.785 25.7098 25.2135 25.4064C25.2055 25.359 25.2055 25.3116 25.2055 25.2642C25.2055 24.5783 25.4515 23.9209 25.9315 23.352C26.0386 23.2256 26.2132 23.1339 26.4116 23.1181L29.133 22.8779H29.3115C31.3665 23.1497 33.0526 23.2698 34.7664 23.2698C36.0716 23.2698 37.468 23.2003 39.281 23.0454C39.4992 23.0233 39.7333 23.0992 39.8761 23.2414C40.3006 23.6681 40.5426 24.1927 40.5426 24.73C40.5426 25.9564 39.3881 26.9772 37.8608 27.1037C37.7219 28.6934 36.2461 29.983 34.2824 30.2579C34.2388 30.2548 34.1991 30.2611 34.1673 30.2611ZM31.6006 29.8629C31.4816 29.8629 31.3546 29.8376 31.2475 29.7838C31.0928 29.7048 30.9936 29.591 30.954 29.4551C30.9143 29.3161 30.9421 29.1739 31.0412 29.0569C31.2277 28.8135 31.6561 28.7345 31.9537 28.8862C32.2671 29.0411 32.3623 29.3635 32.1679 29.6132C32.0449 29.7712 31.8347 29.8629 31.6006 29.8629Z" fill="#7F5334"/>
</g>
<defs>
<clipPath id="clip0_4045_5936">
<rect width="31.606" height="31.606" fill="white" transform="translate(14 15)"/>
</clipPath>
</defs>
</svg>
