<svg width="49" height="47" viewBox="0 0 49 47" fill="none" xmlns="http://www.w3.org/2000/svg">
<path d="M19.7565 37.7977C20.6859 32.8051 17.049 27.9404 11.6331 26.9322C6.21722 25.9239 1.07331 29.1539 0.143862 34.1466C-0.785592 39.1392 2.85137 44.0039 8.26725 45.0121C13.6831 46.0204 18.827 42.7904 19.7565 37.7977Z" fill="#D77F4A"/>
<path d="M11.6214 26.9148C10.447 26.6978 9.28579 26.6804 8.17773 26.8364C8.33938 26.8588 8.5014 26.8848 8.66372 26.9148C14.0816 27.9156 17.7265 32.7759 16.8048 37.7706C16.0829 41.6825 12.7736 44.5164 8.76966 45.0804C14.0057 45.8071 18.8684 42.6156 19.7626 37.7706C20.6842 32.7759 17.0393 27.9156 11.6214 26.9148Z" fill="#C86D36"/>
<path d="M6.37147 22.9356C6.10579 24.3756 4.72365 25.3273 3.28447 25.0615C1.84528 24.7956 0.893992 23.4128 1.15976 21.973C1.38514 20.7517 4.03937 19.1077 4.84012 18.6367C4.96396 18.5638 5.12254 18.6118 5.18589 18.7408C5.54641 19.4737 6.59225 21.7395 6.37147 22.9356Z" fill="#D77F4A"/>
<path d="M5.18682 18.7408C5.12337 18.6118 4.96488 18.5638 4.84104 18.6366C4.44263 18.871 3.58532 19.3959 2.79663 20.0145C3.18021 20.9729 3.55556 22.1721 3.41468 22.9357C3.27993 23.6659 2.85788 24.2701 2.28711 24.6541C2.57967 24.8513 2.91636 24.9933 3.28548 25.0616C4.72467 25.3274 6.10672 24.3757 6.37248 22.9357C6.59318 21.7397 5.54733 19.4738 5.18682 18.7408Z" fill="#C86D36"/>
<path d="M16.6383 24.025C16.3726 25.465 17.3238 26.8477 18.763 27.1136C20.2021 27.3794 21.5842 26.4276 21.85 24.9877C22.0753 23.7664 20.1829 21.2826 19.603 20.5565C19.5134 20.4442 19.3482 20.4323 19.2429 20.5301C18.6446 21.0862 16.8589 22.8289 16.6383 24.025Z" fill="#D77F4A"/>
<path d="M19.6033 20.5565C19.5136 20.4442 19.3484 20.4323 19.2431 20.5301C18.9364 20.8151 18.3178 21.4122 17.7578 22.0875C18.4043 23.0751 19.0272 24.2572 18.8925 24.9877C18.7577 25.7179 18.3356 26.3221 17.7649 26.706C18.0575 26.9033 18.3941 27.0453 18.7633 27.1135C20.2025 27.3793 21.5845 26.4276 21.8503 24.9876C22.0756 23.7664 20.1831 21.2826 19.6033 20.5565Z" fill="#C86D36"/>
<path d="M14.8959 21.2587C14.602 22.8514 13.0733 23.9041 11.4814 23.61C9.88961 23.3159 8.83736 21.7865 9.13126 20.1938C9.38296 18.8301 12.3722 16.9899 13.2267 16.489C13.35 16.4168 13.5081 16.4639 13.5714 16.5922C13.9573 17.3734 15.1428 19.9209 14.8959 21.2587Z" fill="#D77F4A"/>
<path d="M13.5712 16.5921C13.5079 16.464 13.3497 16.4167 13.2265 16.4891C12.8355 16.7183 11.9978 17.2282 11.1798 17.8441C11.628 18.9305 12.1029 20.3646 11.9379 21.2587C11.7768 22.1321 11.2438 22.8424 10.5332 23.2579C10.8186 23.425 11.1373 23.5465 11.4812 23.61C13.0731 23.9041 14.6018 22.8514 14.8957 21.2587C15.1425 19.9209 13.957 17.3734 13.5712 16.5921Z" fill="#C86D36"/>
<path d="M42.0264 28.3469C47.2441 26.5838 50.1564 21.2555 48.5312 16.4459C46.9059 11.6362 41.3586 9.16654 36.1409 10.9297C30.9232 12.6928 28.0109 18.0211 29.6361 22.8307C31.2613 27.6403 36.8086 30.11 42.0264 28.3469Z" fill="#D77F4A"/>
<path d="M48.5565 16.4749C47.1396 12.2504 42.699 9.82221 38.1036 10.4742C41.536 10.9682 44.4912 13.1728 45.5988 16.4749C47.2138 21.2901 44.2887 26.6152 39.0655 28.3688C38.4248 28.5839 37.7793 28.735 37.1367 28.8261C38.7093 29.0524 40.3821 28.9198 42.0233 28.3688C47.2464 26.6152 50.1715 21.2901 48.5565 16.4749Z" fill="#C86D36"/>
<path d="M40.8134 6.25328C41.279 7.64145 42.7811 8.38918 44.1686 7.9233C45.5561 7.45751 46.3034 5.95449 45.8378 4.56632C45.4429 3.38888 42.5839 2.13498 41.7249 1.78136C41.592 1.72671 41.4418 1.79648 41.3972 1.93314C41.1434 2.70958 40.4267 5.10015 40.8134 6.25328Z" fill="#D77F4A"/>
<path d="M45.8383 4.56632C45.4435 3.38888 42.5844 2.13498 41.7254 1.78136C41.5926 1.72671 41.4423 1.79648 41.3977 1.93314C41.3253 2.15489 41.215 2.50851 41.1035 2.92702C41.9343 3.41922 42.6911 4.00148 42.8806 4.56632C43.2688 5.72356 42.8135 6.95995 41.8477 7.60939C42.5073 8.0525 43.3577 8.19567 44.1692 7.9233C45.5566 7.45751 46.3039 5.95449 45.8383 4.56632Z" fill="#C86D36"/>
<path d="M30.8039 8.77737C31.2695 10.1655 30.5221 11.6685 29.1347 12.1344C27.7472 12.6001 26.2451 11.8525 25.7795 10.4643C25.3846 9.2869 26.9089 6.56137 27.3808 5.76081C27.4538 5.63707 27.6156 5.60204 27.7336 5.68406C28.4042 6.15013 30.4172 7.62425 30.8039 8.77737Z" fill="#D77F4A"/>
<path d="M30.8027 8.77737C30.416 7.62425 28.403 6.15013 27.7324 5.68406C27.6144 5.60204 27.4526 5.63707 27.3796 5.76081C27.2141 6.04151 26.9192 6.55926 26.623 7.16363C27.178 7.68703 27.6727 8.26393 27.845 8.77737C28.2332 9.93461 27.7779 11.171 26.8121 11.8204C27.4716 12.2635 28.3221 12.4068 29.1335 12.1343C30.5209 11.6685 31.2683 10.1655 30.8027 8.77737Z" fill="#C86D36"/>
<path d="M32.1378 5.79303C32.6528 7.32849 34.3144 8.15547 35.849 7.6403C37.3836 7.12513 38.2103 5.46267 37.6953 3.92721C37.2544 2.61253 34.0359 1.21153 33.1195 0.835899C32.9873 0.781731 32.8374 0.850733 32.7927 0.986536C32.5206 1.81427 31.7052 4.50343 32.1378 5.79303Z" fill="#D77F4A"/>
<path d="M37.6948 3.92721C37.2539 2.61253 34.0354 1.21153 33.119 0.835899C32.9867 0.781731 32.8369 0.850733 32.7922 0.986536C32.7212 1.20254 32.6132 1.54582 32.5 1.95725C33.5208 2.53224 34.5069 3.2413 34.737 3.92721C35.1868 5.2682 34.613 6.70585 33.4383 7.39175C34.1429 7.80309 35.0142 7.92032 35.8485 7.6403C37.3832 7.12503 38.2097 5.46267 37.6948 3.92721Z" fill="#C86D36"/>
</svg>
