<svg width="64" height="68" viewBox="0 0 64 68" fill="none" xmlns="http://www.w3.org/2000/svg">
<path d="M45.9102 48.6317L48.8316 55.6414C48.9471 55.9234 48.8983 56.246 48.7046 56.4812C48.5109 56.7165 48.2036 56.8262 47.9047 56.7669L45.7198 56.3365C45.4497 56.2794 45.1691 56.3636 44.975 56.56L43.775 57.76C43.5689 57.9639 43.2711 58.0451 42.99 57.9739C42.7089 57.9028 42.4856 57.6898 42.4012 57.4124L41.1516 53.349L39.0098 46.5321L45.9102 48.6317Z" fill="#64931B"/>
<path d="M36.6902 48.6317L33.7688 55.6414C33.6533 55.9234 33.7021 56.246 33.8958 56.4812C34.0895 56.7165 34.3968 56.8262 34.6957 56.7669L36.8806 56.3365C37.1507 56.2794 37.4313 56.3636 37.6254 56.56L38.8254 57.76C39.0315 57.9639 39.3293 58.0451 39.6104 57.9739C39.8915 57.9028 40.1148 57.6898 40.1992 57.4124L41.4488 53.349L43.5906 46.5321L36.6902 48.6317Z" fill="#72AA22"/>
<path d="M34.1577 21.5862H29.0763L29.4405 23.2414L31.7411 33.7766L34.3646 46.6455C34.1629 47.9424 33.0453 48.8983 31.7329 48.8965H13.0956C12.2853 48.8976 11.5186 48.5295 11.0128 47.8964C10.5069 47.2633 10.3171 46.4343 10.497 45.6441L15.388 23.2414L15.7522 21.5862H10.6708C10.3888 21.5867 10.1367 21.4105 10.0403 21.1455C9.94397 20.8805 10.024 20.5835 10.2405 20.4028L21.9508 10.1655C22.2204 9.94483 22.6081 9.94483 22.8777 10.1655L34.588 20.4028C34.8045 20.5835 34.8845 20.8805 34.7881 21.1455C34.6918 21.4105 34.4397 21.5867 34.1577 21.5862Z" fill="#BF7E68"/>
<path d="M52.7278 39.909L51.498 41.6221C51.3077 41.8916 51.2007 42.211 51.1901 42.5407L51.1471 44.627C51.1267 45.3277 50.6688 45.9402 50.0025 46.1581L47.9692 46.8367C47.6501 46.9422 47.3701 47.1411 47.1656 47.4077L45.8671 49.0629C45.4254 49.6222 44.6869 49.8551 44.0042 49.6505L41.9452 49.0463C41.6216 48.9467 41.2756 48.9467 40.9521 49.0463L38.893 49.6505C38.2103 49.8551 37.4719 49.6222 37.0301 49.0629L35.7317 47.3994C35.5242 47.1377 35.245 46.9421 34.9281 46.8367L32.8947 46.1581C32.2284 45.9402 31.7706 45.3277 31.7501 44.627L31.7088 42.5407C31.6982 42.211 31.5911 41.8916 31.4009 41.6221L30.1711 39.909C29.7607 39.347 29.7607 38.5841 30.1711 38.0221L31.4009 36.309C31.5911 36.0395 31.6982 35.7201 31.7088 35.3903L31.7518 33.304C31.7722 32.6033 32.2301 31.9908 32.8963 31.773L34.9297 31.0943C35.2488 30.9889 35.5288 30.7899 35.7333 30.5233L37.0318 28.8681C37.4735 28.3088 38.212 28.0759 38.8947 28.2806L40.9537 28.8847C41.2773 28.9844 41.6233 28.9844 41.9468 28.8847L44.0059 28.2806C44.6886 28.0759 45.427 28.3088 45.8688 28.8681L47.1672 30.5316C47.3746 30.7934 47.6539 30.9889 47.9708 31.0943L50.0042 31.773C50.6704 31.9908 51.1283 32.6033 51.1488 33.304L51.1918 35.3903C51.2024 35.7201 51.3094 36.0395 51.4997 36.309L52.7294 38.0221C53.1394 38.5844 53.1387 39.3473 52.7278 39.909Z" fill="#7DBF29"/>
<path d="M41.4488 45.5862C45.1053 45.5862 48.0695 42.622 48.0695 38.9655C48.0695 35.309 45.1053 32.3448 41.4488 32.3448C37.7923 32.3448 34.8281 35.309 34.8281 38.9655C34.8281 42.622 37.7923 45.5862 41.4488 45.5862Z" fill="#92D149"/>
<path d="M20.7597 22.4138C20.7597 22.8709 20.3892 23.2414 19.9321 23.2414H15.3887L15.7528 21.5862H19.9321C20.3892 21.5862 20.7597 21.9567 20.7597 22.4138Z" fill="#BF7E68"/>
<path d="M29.4413 23.2414H24.8979C24.4408 23.2414 24.0703 22.8709 24.0703 22.4138C24.0703 21.9567 24.4408 21.5862 24.8979 21.5862H29.0772L29.4413 23.2414Z" fill="#BF7E68"/>
<path d="M40.621 42.2759C40.4016 42.2758 40.1911 42.1886 40.0359 42.0334L38.3808 40.3782C38.0671 40.0535 38.0716 39.5373 38.3908 39.2181C38.7101 38.8989 39.2262 38.8944 39.551 39.208L40.4928 40.1498L43.2428 36.0235C43.4069 35.7775 43.6898 35.6377 43.9849 35.6568C44.28 35.6759 44.5424 35.851 44.6734 36.1161C44.8044 36.3812 44.784 36.6961 44.6199 36.9421L41.3096 41.9076C41.1721 42.1137 40.9495 42.2473 40.703 42.2717C40.6748 42.2759 40.6475 42.2759 40.621 42.2759Z" fill="white"/>
<path d="M19.1039 38.1379C17.7327 38.1379 16.6211 37.0264 16.6211 35.6552C16.6211 34.284 17.7327 33.1724 19.1039 33.1724C20.475 33.1724 21.5866 34.284 21.5866 35.6552C21.5866 37.0264 20.475 38.1379 19.1039 38.1379ZM19.1039 34.8276C18.6468 34.8276 18.2763 35.1981 18.2763 35.6552C18.2763 36.1122 18.6468 36.4828 19.1039 36.4828C19.5609 36.4828 19.9314 36.1122 19.9314 35.6552C19.9314 35.1981 19.5609 34.8276 19.1039 34.8276Z" fill="white"/>
<path d="M25.7249 44.7586C24.3538 44.7586 23.2422 43.6471 23.2422 42.2759C23.2422 40.9047 24.3538 39.7931 25.7249 39.7931C27.0961 39.7931 28.2077 40.9047 28.2077 42.2759C28.2077 43.6471 27.0961 44.7586 25.7249 44.7586ZM25.7249 41.4483C25.2679 41.4483 24.8974 41.8188 24.8974 42.2759C24.8974 42.7329 25.2679 43.1035 25.7249 43.1035C26.182 43.1035 26.5525 42.7329 26.5525 42.2759C26.5525 41.8188 26.182 41.4483 25.7249 41.4483Z" fill="white"/>
<path d="M17.4485 44.7586C17.1139 44.7586 16.8122 44.5569 16.6841 44.2477C16.556 43.9385 16.6268 43.5826 16.8634 43.3459L26.7945 33.4149C27.1192 33.1013 27.6354 33.1058 27.9546 33.425C28.2738 33.7442 28.2783 34.2604 27.9647 34.5851L18.0336 44.5161C17.8785 44.6714 17.668 44.7586 17.4485 44.7586Z" fill="white"/>
</svg>
