<svg width="58" height="68" viewBox="0 0 58 68" fill="none" xmlns="http://www.w3.org/2000/svg">
<path d="M34.0192 56.1347V45.8159C34.0192 43.2454 34.809 40.7373 36.2841 38.6322C36.646 38.1156 37.0088 37.5324 37.3367 36.8924C38.0773 35.4459 38.4476 33.838 38.4476 32.2129V30.8764H38.4403C37.8007 30.8764 37.1809 30.3532 37.1809 29.7137V29.0825C37.1809 28.443 37.511 27.9198 38.1505 27.9198H38.3852V21.2943C38.3852 20.693 38.1587 20.1138 37.7509 19.6719L36.6888 18.5213C35.8012 17.5597 35.3083 16.2991 35.3083 14.9904V12.7812H16.0262V14.9903C16.0262 16.299 15.5333 17.5596 14.6457 18.5212L13.5836 19.6718C13.1757 20.1137 12.9492 20.6929 12.9492 21.2943V54.5641C12.9492 56.4617 14.4876 58 16.3852 58H35.239C35.3671 58 35.4934 57.9924 35.6178 57.9787C34.7143 57.8491 34.0192 57.074 34.0192 56.1347Z" fill="#EEEBEE"/>
<path d="M17.5202 54.5642V21.2943C17.5202 20.6929 17.7467 20.1137 18.1545 19.6717L19.2166 18.5211C20.1042 17.5595 20.5971 16.2989 20.5971 14.9902V12.7812H16.0261V14.9903C16.0261 16.299 15.5333 17.5595 14.6456 18.5212L13.5836 19.6718C13.1757 20.1137 12.9492 20.6929 12.9492 21.2943V54.5642C12.9492 56.4618 14.4876 58.0001 16.3852 58.0001H20.9561C19.0584 58 17.5202 56.4617 17.5202 54.5642Z" fill="#D6D4D6"/>
<path d="M17.3056 33.4786C17.2182 33.4786 17.1295 33.4627 17.0431 33.4291C14.9914 32.6309 13.2393 31.2506 11.9762 29.4373C10.6833 27.581 10 25.4 10 23.1301V18.1548C10 16.3127 11.4987 14.8141 13.3408 14.8141H15.9958C16.3959 14.8141 16.7201 15.1384 16.7201 15.5385C16.7201 15.9385 16.3958 16.2628 15.9958 16.2628H13.3408C12.2974 16.2628 11.4487 17.1115 11.4487 18.1548V23.1301C11.4487 27.1201 13.8509 30.6327 17.5685 32.0791C17.9414 32.2241 18.126 32.6439 17.9808 33.0167C17.8694 33.3032 17.5955 33.4786 17.3056 33.4786Z" fill="#5290B2"/>
<path d="M36.0217 10H15.3114C14.49 10 13.8242 10.6658 13.8242 11.4872C13.8242 12.3085 14.49 12.9743 15.3114 12.9743H36.0217C36.843 12.9743 37.5088 12.3085 37.5088 11.4872C37.5088 10.6658 36.843 10 36.0217 10Z" fill="#D6D4D6"/>
<path d="M19.1116 11.4872C19.1116 10.6658 19.7774 10 20.5988 10H15.3114C14.49 10 13.8242 10.6658 13.8242 11.4872C13.8242 12.3085 14.49 12.9743 15.3114 12.9743H20.5988C19.7774 12.9744 19.1116 12.3085 19.1116 11.4872Z" fill="#C4BFC4"/>
<path d="M34.0275 33.4786C34.1149 33.4786 34.2036 33.4627 34.2901 33.4291C36.3417 32.6309 38.0938 31.2506 39.3569 29.4373C40.6498 27.581 41.3331 25.4 41.3331 23.1301V18.1548C41.3331 16.3127 39.8344 14.8141 37.9923 14.8141H35.3373C34.9372 14.8141 34.613 15.1384 34.613 15.5385C34.613 15.9385 34.9373 16.2628 35.3373 16.2628H37.9923C39.0357 16.2628 39.8844 17.1115 39.8844 18.1548V23.1301C39.8844 27.1201 37.4822 30.6327 33.7646 32.0791C33.3917 32.2241 33.2071 32.6439 33.3523 33.0167C33.4637 33.3032 33.7376 33.4786 34.0275 33.4786Z" fill="#5290B2"/>
<path d="M33.3708 30.8379C32.77 30.6207 32.4337 31.1194 32.2949 31.2862C31.9819 31.6623 31.4291 31.7229 31.0427 31.4279C30.229 30.8067 29.2598 30.4225 28.236 30.4225H26.8341H24.5007H23.0988C22.075 30.4225 21.1059 30.8067 20.2921 31.4279C19.9057 31.7229 19.3528 31.6623 19.0399 31.2862C18.9011 31.1194 18.5648 30.6207 17.964 30.8379C17.6398 30.9552 17.4238 31.263 17.4238 31.6077V34.2726C17.4238 34.6173 17.6398 34.9252 17.964 35.0424C18.5658 35.26 18.9008 34.7613 19.0399 34.5942C19.3529 34.218 19.9057 34.1575 20.2921 34.4525C21.1059 35.0737 22.075 35.4579 23.0988 35.4579H24.5007H26.8341H28.236C29.2598 35.4579 30.229 35.0737 31.0427 34.4525C31.4291 34.1576 31.982 34.218 32.2949 34.5942C32.434 34.7613 32.769 35.2601 33.3708 35.0424C33.695 34.9251 33.911 34.6173 33.911 34.2726C33.911 32.7277 33.911 33.1569 33.911 31.6077C33.911 31.263 33.695 30.9552 33.3708 30.8379Z" fill="#D09080"/>
<path d="M33.3708 33.1718C32.769 33.3894 32.434 32.8907 32.2949 32.7236C31.9819 32.3475 31.4291 32.287 31.0427 32.5819C30.229 33.2031 29.2598 33.5873 28.236 33.5873H26.8341H24.5007H23.0988C22.075 33.5873 21.1059 33.2031 20.2921 32.5819C19.9057 32.287 19.3528 32.3475 19.0399 32.7236C18.9008 32.8907 18.5658 33.3895 17.964 33.1719C17.6398 33.0546 17.4238 32.7468 17.4238 32.4021V34.2727C17.4238 34.6174 17.6398 34.9253 17.964 35.0425C18.5658 35.2601 18.9008 34.7614 19.0399 34.5943C19.3529 34.2181 19.9057 34.1576 20.2921 34.4526C21.1059 35.0738 22.075 35.458 23.0988 35.458H24.5007H26.8341H28.236C29.2598 35.458 30.229 35.0738 31.0427 34.4526C31.4291 34.1577 31.982 34.2181 32.2949 34.5943C32.434 34.7614 32.769 35.2602 33.3708 35.0425C33.695 34.9252 33.911 34.6174 33.911 34.2727C33.911 33.0781 33.911 33.0632 33.911 32.4021C33.911 32.7467 33.695 33.0546 33.3708 33.1718Z" fill="#BE694F"/>
<path d="M40.5401 41.39C43.714 43.3511 46.3429 41.6607 46.6901 41.4184C46.3222 40.4373 45.8325 39.5 45.2243 38.6321C44.8624 38.1155 44.4996 37.5325 44.1719 36.8926C43.4312 35.4461 43.0609 33.8381 43.0609 32.2129V30.7799H38.1578V32.2129C38.1578 33.838 37.7876 35.4459 37.0468 36.8924C36.7191 37.5324 36.3563 38.1156 35.9943 38.6322C35.4259 39.4433 34.9604 40.3148 34.6016 41.2262C35.3573 40.775 37.736 39.6575 40.5401 41.39Z" fill="#BBDAFC"/>
<path d="M39.2136 38.7287C39.449 38.2121 39.685 37.6291 39.8981 36.9891C40.3798 35.5427 40.6207 33.9347 40.6207 32.3095V30.7799H38.1578V32.2129C38.1578 33.838 37.7876 35.4459 37.0468 36.8924C36.7191 37.5324 36.3563 38.1156 35.9943 38.6322C35.4259 39.4433 34.9604 40.3148 34.6016 41.2262C35.167 40.8888 36.6406 40.1787 38.521 40.5675C38.7165 39.9283 38.9474 39.3127 39.2136 38.7287Z" fill="#9CC5FA"/>
<path d="M43.0669 27.7264H38.1491C37.5095 27.7264 36.9863 28.2497 36.9863 28.8892V29.9067C36.9863 30.5463 37.5095 31.0695 38.1491 31.0695H43.0669C43.7064 31.0695 44.2296 30.5463 44.2296 29.9067V28.8892C44.2296 28.2498 43.7064 27.7264 43.0669 27.7264Z" fill="#E1F1FF"/>
<path d="M39.6905 29.9068V28.8893C39.6905 28.2498 40.2138 27.7265 40.8533 27.7265H38.1491C37.5095 27.7265 36.9863 28.2498 36.9863 28.8893V29.9068C36.9863 30.5463 37.5095 31.0696 38.1491 31.0696H40.8533C40.2138 31.0696 39.6905 30.5463 39.6905 29.9068Z" fill="#BBDAFC"/>
<path d="M40.6085 41.1003C37.3498 39.0088 34.6877 41.071 34.6509 41.0997C34.0454 42.5895 33.7285 44.1901 33.7285 45.8159V56.1347C33.7285 57.1649 34.5636 58 35.5939 58H45.6231C46.6534 58 47.4885 57.1649 47.4885 56.1347V45.8159C47.4885 44.1904 47.1717 42.5902 46.5665 41.1007C46.546 41.1167 43.8773 43.1984 40.6085 41.1003Z" fill="#EEEBEE"/>
<path d="M37.7395 56.2312V45.9124C37.7395 44.2869 37.9456 42.6868 38.3392 41.1973C38.3393 41.1974 38.3399 41.198 38.3403 41.1985C38.4236 40.8829 38.5154 40.5723 38.6152 40.2674C36.3293 39.7999 34.6799 41.0771 34.6509 41.0997C34.0454 42.5895 33.7285 44.1901 33.7285 45.8159V56.1346C33.7285 57.1649 34.5636 58 35.5939 58H38.5695C38.0874 57.7532 37.7395 57.0553 37.7395 56.2312Z" fill="#D6D4D6"/>
</svg>
