<svg width="62" height="62" viewBox="0 0 62 62" fill="none" xmlns="http://www.w3.org/2000/svg">
<g clip-path="url(#clip0_4045_5978)">
<path d="M26.1799 7.37328L0.842086 48.7197C-1.46654 52.4867 1.24426 57.3271 5.66228 57.3271H31.0001H56.3378C60.7558 57.3271 63.4665 52.4867 61.158 48.7197L35.8202 7.37328C33.6146 3.77401 28.3854 3.77401 26.1799 7.37328Z" fill="#FF0000"/>
<path d="M35.8205 7.37328C33.6148 3.77401 28.3856 3.77401 26.1801 7.37328L16.9404 22.4506L51.8168 57.3271H56.3381C60.7561 57.3271 63.4668 52.4867 61.1583 48.7197L35.8205 7.37328Z" fill="#FF0000"/>
<path d="M28.755 13.3325L7.18217 48.5351C6.10707 50.2896 7.36954 52.5439 9.4273 52.5439H31.0001H52.5729C54.6306 52.5439 55.8931 50.2896 54.818 48.5351L33.2452 13.3325C32.2179 11.6561 29.7823 11.6561 28.755 13.3325Z" fill="white"/>
<g clip-path="url(#clip1_4045_5978)">
<path fill-rule="evenodd" clip-rule="evenodd" d="M33.0183 46.4765H28.9565C28.469 46.4765 28.0791 46.0866 28.0791 45.6316V41.5697C28.0791 41.0823 28.469 40.6924 28.9565 40.6924H33.0183C33.4733 40.6924 33.8632 41.0823 33.8632 41.5697V45.6316C33.8632 46.0866 33.4733 46.4765 33.0183 46.4765Z" fill="#FF0000"/>
<path fill-rule="evenodd" clip-rule="evenodd" d="M33.0503 38.9697H28.9559C28.501 38.9697 28.1111 38.6123 28.0786 38.1574L27.0062 21.9099C26.9737 21.6824 27.0712 21.4549 27.2337 21.2925C27.3962 21.0975 27.6236 21 27.8511 21H34.1226C34.3826 21 34.6101 21.0975 34.7725 21.2925C34.935 21.4549 35 21.6824 35 21.9099L33.8952 38.1574C33.8952 38.6123 33.5052 38.9697 33.0503 38.9697Z" fill="#FF0000"/>
<path d="M41.536 32.8955H36.8706C36.4263 34.2893 37.5371 35.0194 38.2036 37.1434V40.3292H40.203L41.536 36.6124V32.8955Z" fill="#BE9C85"/>
<path d="M40.2026 40.8631H38.2032C37.8342 40.8631 37.5367 40.6261 37.5367 40.3321V37.2126C37.2986 36.473 37.0011 35.9105 36.7432 35.4111C36.287 34.5451 35.8943 33.7992 36.2235 32.7657C36.2989 32.5286 36.5647 32.3643 36.8702 32.3643H41.5356C41.9045 32.3643 42.2021 32.6013 42.2021 32.8952V36.6121C42.2021 36.6627 42.1941 36.7101 42.1782 36.7575L40.8453 40.4744C40.762 40.7051 40.5001 40.8631 40.2026 40.8631ZM38.8696 39.8012H39.6988L40.8691 36.5394V33.4262H37.4375C37.4058 33.9256 37.6359 34.3618 37.9691 35.0002C38.2428 35.5185 38.58 36.1665 38.8458 37.0167C38.8577 37.0578 38.8657 37.102 38.8657 37.1462V39.8012H38.8696Z" fill="#7F5334"/>
<path d="M28.2031 34.4887L24.2002 33.4268L24.8706 36.0848V40.3327H26.8701L28.2031 36.0848V34.4887Z" fill="#BE9C85"/>
<path d="M26.8699 40.8632H24.8704C24.5015 40.8632 24.2039 40.6262 24.2039 40.3323V36.135L23.5494 33.5306C23.5018 33.3442 23.5851 33.1545 23.7596 33.0281C23.9381 32.9017 24.1881 32.8606 24.4102 32.9238L28.4091 33.9858C28.6829 34.0585 28.8654 34.2608 28.8654 34.4883V36.0813C28.8654 36.1255 28.8574 36.1666 28.8455 36.2108L27.5126 40.4587C27.4411 40.6989 27.1753 40.8632 26.8699 40.8632ZM25.5369 39.8013H26.3502L27.5364 36.018V34.8739L25.0807 34.2228L25.521 35.9801C25.529 36.0149 25.5329 36.0496 25.5329 36.0844V39.8013H25.5369Z" fill="#7F5334"/>
<path d="M39.8703 37.6734C41.5267 37.6734 42.8694 36.6036 42.8694 35.2839C42.8694 33.9643 41.5267 32.8945 39.8703 32.8945C38.2139 32.8945 36.8711 33.9643 36.8711 35.2839C36.8711 36.6036 38.2139 37.6734 39.8703 37.6734Z" fill="white"/>
<path d="M39.8698 38.208C37.8465 38.208 36.2041 36.8963 36.2041 35.2876C36.2041 33.6757 37.8505 32.3672 39.8698 32.3672C41.893 32.3672 43.5354 33.6788 43.5354 35.2876C43.5354 36.8963 41.889 38.208 39.8698 38.208ZM39.8698 33.426C38.5844 33.426 37.5371 34.2604 37.5371 35.2844C37.5371 36.3085 38.5844 37.1429 39.8698 37.1429C41.1551 37.1429 42.2024 36.3085 42.2024 35.2844C42.2024 34.2604 41.1551 33.426 39.8698 33.426Z" fill="#7F5334"/>
<path d="M46.2012 27.5851C46.2012 25.8246 44.412 24.3992 42.2023 24.3992C37.2632 24.8891 34.5497 24.9713 30.2017 24.3992L25.6672 24.8038L22.6125 23.5522C21.3986 23.1445 19.9902 23.3436 19.0381 24.0737C18.8397 24.2254 18.3557 24.6868 17.8043 25.2273C16.7808 26.226 15.5391 26.9561 15.5391 26.9561C15.5787 27.6009 15.7731 29.0611 16.5666 28.9378L18.8715 28.6502C19.2642 28.7482 20.3433 28.7134 21.1526 28.3405C21.5414 28.1603 23.763 32.9486 23.763 32.9486C24.4493 33.9063 25.0602 34.4942 26.4408 34.4942H28.2062V36.0871L28.8727 40.335H30.8681L31.5346 36.0871V33.9569C34.6727 34.4815 37.525 34.9367 40.2029 34.4879C40.2306 35.6352 42.2023 35.0188 42.8688 37.1428V40.3286H45.5347V37.6737L46.2012 34.4879L45.5347 31.8772L46.2012 27.5851Z" fill="white"/>
<path d="M45.5343 40.8632H42.8684C42.4994 40.8632 42.2019 40.6261 42.2019 40.3322V37.2127C41.8964 36.3024 41.3529 36.0749 40.7777 35.8347C40.4127 35.683 39.9565 35.487 39.7105 35.1014C37.2747 35.389 34.7119 35.0287 32.2007 34.6147V36.0843C32.2007 36.1065 32.1967 36.1286 32.1967 36.1507L31.5302 40.3986C31.4906 40.6641 31.2049 40.8632 30.8677 40.8632H28.8683C28.5311 40.8632 28.2494 40.6641 28.2058 40.3986L27.5393 36.1507C27.5353 36.1286 27.5353 36.1065 27.5353 36.0843V35.0224H26.4364C24.6313 35.0224 23.8657 34.1627 23.1794 33.2082C23.1595 33.1829 23.1437 33.1576 23.1318 33.1292C22.3859 31.5236 21.4418 29.6746 20.9776 28.9888C20.1802 29.2353 19.3352 29.2638 18.8393 29.1879L16.6613 29.4597C16.3598 29.5071 16.0385 29.4439 15.7727 29.2796C15.2451 28.9509 14.9396 28.1765 14.8642 26.9787C14.8523 26.8017 14.9555 26.631 15.134 26.5235C15.1459 26.5172 16.3241 25.8187 17.2762 24.8863C18.1728 24.0108 18.4426 23.7833 18.5656 23.6853C19.7081 22.813 21.3941 22.5665 22.862 23.0595L25.7858 24.2542L30.1219 23.8686C30.1814 23.8623 30.2449 23.8655 30.3044 23.8718C34.6524 24.4438 37.35 24.3395 42.1146 23.8686C42.1424 23.8655 42.1701 23.8655 42.1979 23.8655C44.7726 23.8655 46.8633 25.5343 46.8633 27.5823C46.8633 27.6045 46.8633 27.6266 46.8593 27.6487L46.2047 31.8555L46.8474 34.3808C46.8633 34.444 46.8672 34.5104 46.8514 34.5736L46.1928 37.7184V40.329C46.2008 40.6261 45.9032 40.8632 45.5343 40.8632ZM43.5348 39.8012H44.8678V37.6773C44.8678 37.6488 44.8718 37.6204 44.8757 37.5888L45.5224 34.4977L44.8797 31.9819C44.8638 31.925 44.8638 31.8681 44.8718 31.8112L45.5343 27.5507C45.5144 26.1095 44.0466 24.9432 42.2415 24.9274C37.4016 25.4047 34.6325 25.5121 30.1854 24.9306L25.7422 25.3257C25.6112 25.3383 25.4803 25.3193 25.3653 25.2688L22.3066 24.0172C21.3743 23.7074 20.2556 23.8686 19.4978 24.447C19.4106 24.5134 19.1448 24.7441 18.3196 25.5501C17.55 26.3023 16.6732 26.9028 16.2289 27.1904C16.2964 27.8257 16.4471 28.2397 16.5622 28.3914L18.7719 28.1165C18.871 28.1038 18.9742 28.1101 19.0734 28.1354C19.2995 28.1923 20.1842 28.167 20.8229 27.8731C20.9935 27.7941 21.2474 27.7783 21.4299 27.832C21.7234 27.9174 22.2114 28.0564 24.3735 32.7151C25.0043 33.5906 25.4406 33.9573 26.4443 33.9573H28.2097C28.5787 33.9573 28.8762 34.1943 28.8762 34.4882V36.0496L29.4633 39.8012H30.2845L30.8677 36.0496V33.9573C30.8677 33.7961 30.959 33.6444 31.1137 33.5464C31.2684 33.4452 31.4747 33.4073 31.6691 33.4389C34.5135 33.9162 37.4492 34.4061 40.0596 33.9699C40.254 33.9351 40.4563 33.9762 40.611 34.0742C40.7658 34.1722 40.861 34.3207 40.8649 34.4788C40.8689 34.6431 40.8848 34.6779 41.3965 34.8928C42.0591 35.1709 43.0627 35.5945 43.511 37.0167C43.5229 37.0578 43.5309 37.1021 43.5309 37.1463V39.8012H43.5348ZM16.4471 28.4104C16.4431 28.4104 16.4392 28.4104 16.4352 28.4136L16.4471 28.4104Z" fill="#7F5334"/>
<path d="M31.5346 35.0189C31.1657 35.0189 30.8682 34.7819 30.8682 34.4879V32.364C30.8682 32.0701 31.1657 31.833 31.5346 31.833C31.9036 31.833 32.2011 32.0701 32.2011 32.364V34.4879C32.2011 34.7819 31.9036 35.0189 31.5346 35.0189Z" fill="#7F5334"/>
<path d="M40.2021 35.0189C39.8807 35.0189 39.5991 34.8356 39.5435 34.5764L38.877 31.3905C38.8175 31.0997 39.0635 30.8279 39.4245 30.7805C39.7895 30.7331 40.1307 30.9291 40.1902 31.2167L40.8567 34.4026C40.9162 34.6933 40.6702 34.9651 40.3092 35.0126C40.2735 35.0189 40.2378 35.0189 40.2021 35.0189Z" fill="#7F5334"/>
<path d="M28.2016 35.0191C28.031 35.0191 27.8604 34.9685 27.7295 34.8642L26.3966 33.8022C26.1347 33.5936 26.1347 33.2586 26.3966 33.05C26.6584 32.8414 27.0789 32.8414 27.3408 33.05L28.6737 34.112C28.9355 34.3206 28.9355 34.6556 28.6737 34.8642C28.5428 34.9685 28.3722 35.0191 28.2016 35.0191Z" fill="#7F5334"/>
<path d="M20.8662 23.8654L23.5321 22.2725C23.5321 22.2725 24.2542 23.8654 23.5321 24.3964C22.8101 24.9274 22.1992 24.9274 22.1992 24.9274L20.8662 23.8654Z" fill="#BE9C85"/>
<path d="M22.199 25.4585C21.83 25.4585 21.5325 25.2215 21.5325 24.9275C21.5325 24.6336 21.83 24.3966 22.199 24.3966C22.195 24.3966 22.5838 24.3713 23.0797 24.0078C23.2066 23.9162 23.2185 23.5716 23.1392 23.1734L21.2667 24.2923C20.9731 24.4693 20.5526 24.4187 20.3344 24.1848C20.1123 23.9509 20.1718 23.6159 20.4693 23.4421L23.1352 21.8491C23.3019 21.748 23.524 21.7164 23.7263 21.7638C23.9287 21.8112 24.0913 21.9345 24.1627 22.0925C24.3095 22.4149 24.9839 24.0552 23.9882 24.7885C23.0995 25.4396 22.2902 25.4585 22.199 25.4585Z" fill="#7F5334"/>
<path d="M26.9043 26.6532C26.8805 26.5236 26.8686 26.3908 26.8686 26.2581C26.8686 25.6607 27.0947 25.1045 27.4835 24.6399L30.205 24.3965C33.9778 24.8927 36.5207 24.8959 40.353 24.5672C40.6743 24.8864 40.8727 25.2846 40.8727 25.7239C40.8727 26.7511 39.8293 27.5824 38.54 27.5824C38.421 27.5824 38.3019 27.5666 38.1869 27.5539C38.1988 27.6519 38.2067 27.7499 38.2067 27.8479C38.2067 29.4598 36.5643 30.7683 34.5411 30.7683C33.0891 30.7683 31.8395 30.0951 31.2444 29.1184C31.0183 29.1532 30.7802 29.1722 30.5422 29.1722C29.6496 29.1722 28.8363 28.9193 28.1976 28.4989C28.0032 28.5874 27.7811 28.6412 27.5391 28.6412C26.8012 28.6412 26.2061 28.1671 26.2061 27.5792C26.2021 27.181 26.4878 26.8333 26.9043 26.6532Z" fill="#BE9C85"/>
<path d="M35.1673 31.2611C34.842 31.2611 34.5604 31.0746 34.5088 30.8218C34.4414 30.5342 34.6873 30.2592 35.0483 30.2055C36.4963 30.0095 37.5357 29.0202 37.5357 27.854C37.5357 27.7781 37.5278 27.6991 37.5238 27.6138C37.504 27.4494 37.5754 27.2914 37.7262 27.1744C37.8809 27.0638 38.0872 27.0101 38.2855 27.0354C38.4125 27.0512 38.4839 27.0575 38.5394 27.0575C39.4598 27.0575 40.2056 26.4633 40.2056 25.73C40.2056 25.5214 40.1461 25.3223 40.0192 25.1358C38.3728 25.2686 37.02 25.3318 35.7664 25.3318H35.7386C33.9851 25.3318 32.2713 25.2085 30.1846 24.9399L27.8837 25.1485C27.6575 25.493 27.5385 25.8723 27.5385 26.2642C27.5385 26.359 27.5504 26.4665 27.5702 26.5866C27.602 26.811 27.4711 27.0227 27.2251 27.127C27.0029 27.2218 26.872 27.3925 26.872 27.5885C26.872 27.9709 27.3917 28.2585 27.8638 28.0468C28.0979 27.9393 28.4113 27.9614 28.6255 28.1005C29.165 28.4608 29.8315 28.6536 30.5377 28.6536H30.625H30.6527C31.0137 28.6536 31.3073 28.878 31.3113 29.1625C31.3232 29.4532 31.0375 29.7029 30.6726 29.7156C29.78 29.7377 28.8596 29.5291 28.0979 29.115C27.9194 29.1625 27.725 29.1846 27.5385 29.1846C26.4396 29.1846 25.5391 28.4671 25.5391 27.5916C25.5391 27.1397 25.785 26.7098 26.2135 26.4064C26.2055 26.359 26.2055 26.3116 26.2055 26.2642C26.2055 25.5783 26.4515 24.9209 26.9315 24.352C27.0386 24.2256 27.2132 24.1339 27.4116 24.1181L30.133 23.8779H30.3115C32.3665 24.1497 34.0526 24.2698 35.7664 24.2698C37.0716 24.2698 38.468 24.2003 40.281 24.0454C40.4992 24.0233 40.7333 24.0992 40.8761 24.2414C41.3006 24.6681 41.5426 25.1927 41.5426 25.73C41.5426 26.9564 40.3881 27.9772 38.8608 28.1037C38.7219 29.6934 37.2461 30.983 35.2824 31.2579C35.2388 31.2548 35.1991 31.2611 35.1673 31.2611ZM32.6006 30.8629C32.4816 30.8629 32.3546 30.8376 32.2475 30.7838C32.0928 30.7048 31.9936 30.591 31.954 30.4551C31.9143 30.3161 31.9421 30.1739 32.0412 30.0569C32.2277 29.8135 32.6561 29.7345 32.9537 29.8862C33.2671 30.0411 33.3623 30.3635 33.1679 30.6132C33.0449 30.7712 32.8347 30.8629 32.6006 30.8629Z" fill="#7F5334"/>
</g>
</g>
<defs>
<clipPath id="clip0_4045_5978">
<rect width="62" height="62" fill="white"/>
</clipPath>
<clipPath id="clip1_4045_5978">
<rect width="31.606" height="31.606" fill="white" transform="translate(15 16)"/>
</clipPath>
</defs>
</svg>
